<svg width="52" height="65" viewBox="0 0 52 65" fill="none" xmlns="http://www.w3.org/2000/svg">
<path d="M52 26C52 11.6632 40.3368 0 26 0C11.6632 0 0 11.6632 0 26C0 32.9052 2.7235 39.1755 7.13267 43.836C7.20633 43.9703 7.3125 44.0765 7.43383 44.1675C11.739 48.568 17.5912 51.4302 24.0998 51.9047C24.7238 51.961 25.3543 52 26 52C26.6457 52 27.2783 51.961 27.9023 51.9047C41.3508 50.9232 52 39.6955 52 26ZM26 2.16667C39.1408 2.16667 49.8333 12.8592 49.8333 26C49.8333 32.162 47.463 37.7672 43.6107 42.003L36.6058 39.0845C38.5298 38.2633 39.9447 37.3143 40.9738 36.4672C38.259 28.7343 33.3472 18.4167 30.3333 18.4167C29.5403 18.4167 29.0247 18.642 28.4267 18.8998C27.7767 19.1815 27.04 19.5 26 19.5C24.96 19.5 24.2233 19.1815 23.5733 18.8998C22.9753 18.642 22.4597 18.4167 21.6667 18.4167C18.6528 18.4167 13.741 28.7343 11.0262 36.4672C12.0553 37.3165 13.4702 38.2633 15.3942 39.0845L8.38933 42.003C4.537 37.7672 2.16667 32.162 2.16667 26C2.16667 12.8592 12.8592 2.16667 26 2.16667ZM25.7032 26.0433C25.7725 26.0238 25.844 26.0498 25.9155 26.0433C25.974 26.039 26.026 26.039 26.0845 26.0433C26.156 26.0498 26.2275 26.0238 26.2968 26.0433L33.8802 28.21C34.411 28.3595 34.7425 28.886 34.6515 29.4298L33.5682 35.9298C33.553 36.0187 33.514 36.0967 33.4793 36.1768C33.4707 36.1963 33.4772 36.218 33.4685 36.2375C33.4642 36.2462 33.4555 36.2483 33.4512 36.2548C33.3688 36.413 33.2475 36.5365 33.1023 36.6362C33.072 36.6578 33.0417 36.673 33.0092 36.6903C32.8553 36.7727 32.6863 36.8333 32.5 36.8333H19.5C19.4718 36.8333 19.448 36.8138 19.4198 36.8117C19.2638 36.8008 19.1187 36.7618 18.9865 36.6882C18.9627 36.6752 18.9367 36.6708 18.915 36.6557C18.7655 36.5582 18.6463 36.426 18.5597 36.2657C18.5532 36.2527 18.538 36.2483 18.5315 36.2353C18.5185 36.2072 18.5272 36.1768 18.5142 36.1487C18.486 36.075 18.4448 36.01 18.4318 35.9298L17.3485 29.4298C17.2575 28.886 17.589 28.3617 18.1198 28.21L25.7032 26.0433ZM18.6073 22.1368C19.0038 21.5583 20.0937 20.5833 21.6667 20.5833C23.5105 20.5833 24.583 21.944 24.7 22.1C24.947 22.4272 24.986 22.867 24.8018 23.2332C24.6177 23.6015 24.2428 23.8333 23.8333 23.8333H19.5C19.097 23.8333 18.7287 23.6102 18.5423 23.2527C18.3538 22.8973 18.3798 22.4683 18.6073 22.1368ZM27.3 22.1C27.417 21.944 28.4895 20.5833 30.3333 20.5833C31.9063 20.5833 32.9962 21.5583 33.3927 22.1368C33.6202 22.4683 33.6462 22.8995 33.4577 23.2548C33.2713 23.6102 32.903 23.8333 32.5 23.8333H28.1667C27.7572 23.8333 27.3823 23.6015 27.1982 23.2353C27.014 22.8692 27.053 22.4293 27.3 22.1Z" fill="black"/>
<path d="M8.83133 34.1575C8.85517 34.1943 9.01983 34.4392 9.31883 34.801C11.2732 29.4147 16.5685 16.25 21.6667 16.25C22.9103 16.25 23.7553 16.6162 24.4357 16.9108C24.9795 17.147 25.4107 17.3333 26 17.3333C26.5893 17.3333 27.0205 17.147 27.5643 16.9108C28.2447 16.6162 29.0897 16.25 30.3333 16.25C35.4315 16.25 40.7268 29.4147 42.6812 34.801C42.9823 34.4392 43.1448 34.1943 43.1687 34.1575C43.3398 33.8845 43.3788 33.5487 43.277 33.241L39 20.4078V16.25C39 11.3772 35.0328 8.23982 30.3333 7.04816V10.8333C30.3333 13.2232 28.3898 15.1667 26 15.1667C23.6102 15.1667 21.6667 13.2232 21.6667 10.8333V7.04816C16.9672 8.23982 13 11.3772 13 16.25V20.4078L8.723 33.241C8.62117 33.5465 8.66017 33.8845 8.83133 34.1575Z" fill="black"/>
<path d="M23.2028 29.0095L19.643 30.0257L20.1522 33.0764L23.2028 29.0095Z" fill="black"/>
<path d="M26 13C27.1938 13 28.1666 12.0293 28.1666 10.8333V6.63867C27.4451 6.54983 26.7215 6.5 26 6.5C25.2785 6.5 24.5548 6.54983 23.8333 6.63867V10.8333C23.8333 12.0293 24.8061 13 26 13Z" fill="black"/>
<path d="M32.357 30.0257L28.7972 29.0095L31.8478 33.0764L32.357 30.0257Z" fill="black"/>
<path d="M30.3334 34.6667L26 28.8882L21.6667 34.6667H30.3334Z" fill="black"/>
</svg>
