<svg width="45" height="45" viewBox="0 0 45 45" fill="none" xmlns="http://www.w3.org/2000/svg">
<path d="M22.0214 0L17.9262 4.55924C19.3685 6.61991 19.9094 9.09272 19.9094 10.3549C18.6731 8.19118 17.3595 7.57297 16.0202 6.69719L13.3931 9.63365C16.9732 10.8701 19.1882 15.1202 19.1882 19.5249C19.1882 21.6371 18.467 26.7115 13.3931 26.4797V26.4539C9.65849 26.016 6.15568 21.6628 5.84661 16.949C5.53754 12.2352 7.52075 7.65025 10.8175 3.838C4.58456 7.54722 0.566631 14.0641 0.0515112 21.2765C0.0515112 21.4568 0.0257556 21.6371 0.0257556 21.8174C0.0257556 21.9977 0 22.178 0 22.3841C0 22.5644 0 22.7704 0 22.9507C0 35.1345 9.8903 45.0257 22.0729 45C34.2555 45 44.12 35.1345 44.12 22.9507C44.12 22.3841 44.0942 21.8174 44.0685 21.2507C43.5276 14.0383 39.5097 7.52146 33.3025 3.81225H33.2767C36.5735 7.62449 38.5825 12.2095 38.2734 16.9233C37.9643 21.6371 34.4615 25.9902 30.7269 26.4281V26.4539C25.6787 26.6857 24.9318 21.6113 24.9318 19.4991C24.9318 15.0944 27.1211 10.8443 30.7269 9.60789L28.074 6.67143C26.7605 7.57297 25.4212 8.19118 24.1849 10.3291C24.1849 9.09272 24.7257 6.59415 26.1681 4.53348L22.0214 0Z" fill="#F49446"/>
</svg>
