<svg width="45" height="45" viewBox="0 0 45 45" fill="none" xmlns="http://www.w3.org/2000/svg">
<path d="M19.69 19.5249C19.69 15.2722 17.6813 11.0387 14.241 9.43733L16.1102 7.34818C16.1694 7.3857 16.2283 7.42287 16.2869 7.45986C17.4333 8.18337 18.4675 8.83611 19.4771 10.603L20.4113 12.2377V10.3549C20.4113 9.06567 19.8988 6.68116 18.56 4.60376L22.0268 0.744457L25.5365 4.58116C24.1989 6.66062 23.6872 9.06554 23.6872 10.3291V12.1925L24.62 10.5794C25.5966 8.89072 26.6103 8.23056 27.7091 7.51501C27.804 7.45321 27.8995 7.391 27.9957 7.32768L29.8787 9.41173C26.4186 11.0138 24.4341 15.2487 24.4341 19.4991C24.4341 20.5944 24.625 22.4865 25.4995 24.0944C25.9405 24.9053 26.5628 25.6571 27.4338 26.1888C28.3081 26.7225 29.4023 27.0154 30.7527 26.9534L31.2298 26.9315V26.8562C33.1006 26.4953 34.8473 25.261 36.179 23.5909C37.6193 21.7847 38.6142 19.4219 38.7759 16.956C39.0295 13.0895 37.7758 9.33055 35.5751 6.00587C40.1935 9.74738 43.1204 15.2664 43.5735 21.2808C43.5992 21.8468 43.6242 22.3997 43.6242 22.9507C43.6242 34.8583 33.9825 44.5 22.075 44.5H22.0739C10.1673 44.5251 0.5 34.8585 0.5 22.9507V22.9497V22.9486V22.9476V22.9465V22.9455V22.9444V22.9433V22.9423V22.9412V22.9402V22.9391V22.938V22.937V22.9359V22.9348V22.9338V22.9327V22.9316V22.9306V22.9295V22.9284V22.9274V22.9263V22.9252V22.9242V22.9231V22.922V22.9209V22.9199V22.9188V22.9177V22.9167V22.9156V22.9145V22.9134V22.9123V22.9113V22.9102V22.9091V22.908V22.907V22.9059V22.9048V22.9037V22.9026V22.9016V22.9005V22.8994V22.8983V22.8972V22.8962V22.8951V22.894V22.8929V22.8918V22.8907V22.8896V22.8886V22.8875V22.8864V22.8853V22.8842V22.8831V22.882V22.8809V22.8798V22.8788V22.8777V22.8766V22.8755V22.8744V22.8733V22.8722V22.8711V22.87V22.8689V22.8678V22.8667V22.8656V22.8645V22.8634V22.8623V22.8612V22.8601V22.8591V22.858V22.8569V22.8558V22.8547V22.8536V22.8525V22.8514V22.8503V22.8492V22.848V22.8469V22.8458V22.8447V22.8436V22.8425V22.8414V22.8403V22.8392V22.8381V22.837V22.8359V22.8348V22.8337V22.8326V22.8315V22.8304V22.8293V22.8282V22.827V22.8259V22.8248V22.8237V22.8226V22.8215V22.8204V22.8193V22.8182V22.8171V22.8159V22.8148V22.8137V22.8126V22.8115V22.8104V22.8093V22.8082V22.807V22.8059V22.8048V22.8037V22.8026V22.8015V22.8003V22.7992V22.7981V22.797V22.7959V22.7948V22.7936V22.7925V22.7914V22.7903V22.7892V22.7881V22.7869V22.7858V22.7847V22.7836V22.7825V22.7813V22.7802V22.7791V22.778V22.7769V22.7757V22.7746V22.7735V22.7724V22.7712V22.7701V22.769V22.7679V22.7668V22.7656V22.7645V22.7634V22.7623V22.7611V22.76V22.7589V22.7578V22.7566V22.7555V22.7544V22.7533V22.7521V22.751V22.7499V22.7488V22.7476V22.7465V22.7454V22.7443V22.7431V22.742V22.7409V22.7397V22.7386V22.7375V22.7364V22.7352V22.7341V22.733V22.7319V22.7307V22.7296V22.7285V22.7273V22.7262V22.7251V22.724V22.7228V22.7217V22.7206V22.7194V22.7183V22.7172V22.716V22.7149V22.7138V22.7127V22.7115V22.7104V22.7093V22.7081V22.707V22.7059V22.7047V22.7036V22.7025V22.7014V22.7002V22.6991V22.698V22.6968V22.6957V22.6946V22.6934V22.6923V22.6912V22.69V22.6889V22.6878V22.6866V22.6855V22.6844V22.6833V22.6821V22.681V22.6799V22.6787V22.6776V22.6765V22.6753V22.6742V22.6731V22.6719V22.6708V22.6697V22.6685V22.6674V22.6663V22.6651V22.664V22.6629V22.6617V22.6606V22.6595V22.6583V22.6572V22.6561V22.655V22.6538V22.6527V22.6516V22.6504V22.6493V22.6482V22.647V22.6459V22.6448V22.6436V22.6425V22.6414V22.6402V22.6391V22.638V22.6369V22.6357V22.6346V22.6335V22.6323V22.6312V22.6301V22.6289V22.6278V22.6267V22.6255V22.6244V22.6233V22.6222V22.621V22.6199V22.6188V22.6176V22.6165V22.6154V22.6142V22.6131V22.612V22.6109V22.6097V22.6086V22.6075V22.6063V22.6052V22.6041V22.603V22.6018V22.6007V22.5996V22.5984V22.5973V22.5962V22.5951V22.5939V22.5928V22.5917V22.5906V22.5894V22.5883V22.5872V22.586V22.5849V22.5838V22.5827V22.5815V22.5804V22.5793V22.5782V22.577V22.5759V22.5748V22.5737V22.5725V22.5714V22.5703V22.5692V22.5681V22.5669V22.5658V22.5647V22.5636V22.5624V22.5613V22.5602V22.5591V22.558V22.5568V22.5557V22.5546V22.5535V22.5524V22.5512V22.5501V22.549V22.5479V22.5468V22.5456V22.5445V22.5434V22.5423V22.5412V22.54V22.5389V22.5378V22.5367V22.5356V22.5345V22.5333V22.5322V22.5311V22.53V22.5289V22.5278V22.5267V22.5255V22.5244V22.5233V22.5222V22.5211V22.52V22.5189V22.5178V22.5166V22.5155V22.5144V22.5133V22.5122V22.5111V22.51V22.5089V22.5078V22.5067V22.5056V22.5044V22.5033V22.5022V22.5011V22.5V22.4989V22.4978V22.4967V22.4956V22.4945V22.4934V22.4923V22.4912V22.4901V22.489V22.4879V22.4868V22.4857V22.4846V22.4835V22.4824V22.4813V22.4802V22.4791V22.478V22.4769V22.4758V22.4747V22.4736V22.4725V22.4714V22.4703V22.4692V22.4681V22.467V22.4659V22.4648V22.4637V22.4626V22.4615V22.4604V22.4593V22.4582V22.4571V22.4561V22.455V22.4539V22.4528V22.4517V22.4506V22.4495V22.4484V22.4473V22.4463V22.4452V22.4441V22.443V22.4419V22.4408V22.4397V22.4387V22.4376V22.4365V22.4354V22.4343V22.4332V22.4322V22.4311V22.43V22.4289V22.4278V22.4268V22.4257V22.4246V22.4235V22.4225V22.4214V22.4203V22.4192V22.4182V22.4171V22.416V22.4149V22.4139V22.4128V22.4117V22.4107V22.4096V22.4085V22.4074V22.4064V22.4053V22.4042V22.4032V22.4021V22.401V22.4V22.3989V22.3978V22.3968V22.3957V22.3947V22.3936V22.3925V22.3915V22.3904V22.3894V22.3883V22.3872V22.3862V22.3851V22.3841C0.5 22.3004 0.505198 22.2197 0.511694 22.1255L0.512671 22.1113C0.518644 22.025 0.525758 21.9223 0.525758 21.8174C0.525758 21.748 0.530712 21.6757 0.537366 21.5825L0.537844 21.5759C0.543628 21.4949 0.550638 21.3969 0.55144 21.2954C0.984475 15.298 3.89608 9.79359 8.51104 6.05453C6.32591 9.37447 5.09534 13.1251 5.34823 16.9818C5.50993 19.4477 6.50485 21.8104 7.94514 23.6167C9.27688 25.2868 11.0235 26.521 12.8944 26.882V26.9573L13.3716 26.9791C14.7279 27.0411 15.8252 26.7485 16.7009 26.2147C17.5735 25.6829 18.1952 24.9307 18.6347 24.1194C19.5062 22.5109 19.69 20.6184 19.69 19.5249Z" stroke="#EC944B"/>
</svg>
