<svg xmlns="http://www.w3.org/2000/svg" viewBox="0 0 64 80" x="0px" y="0px"><g data-name="Layer 36"><path d="M60,48.43H58.34a32.77,32.77,0,0,0-8.51-21.49l-.13-.15a28.54,28.54,0,0,0-2.82-2.58V21.68a11.42,11.42,0,0,0,13.5-1.95l0-.05c1.69-1.84-2.91-7-5.23-9.45l1.09-1.09a1,1,0,0,0-1.41-1.41l-1.1,1.09a39.34,39.34,0,0,0-5-4.2c-1.5-1-3.36-2-4.42-1h0a11.41,11.41,0,0,0,0,16.11l.61.55v2.49A23.41,23.41,0,0,0,32,18.86a24.36,24.36,0,0,0-17.7,7.93l-.13.15A32.77,32.77,0,0,0,5.66,48.43H4a1,1,0,0,0-.84.46,1,1,0,0,0-.06,1l5,10.58A1,1,0,0,0,9,61H55a1,1,0,0,0,.91-.57l5-10.58a1,1,0,0,0-.07-1A1,1,0,0,0,60,48.43Zm-7.65-38.2-.22.23a1,1,0,0,0,0,1.41,1,1,0,0,0,.71.29,1,1,0,0,0,.7-.29l.23-.22A27.36,27.36,0,0,1,58.63,18a29,29,0,0,1-7.05-5.55,29.21,29.21,0,0,1-5.55-7A26.92,26.92,0,0,1,52.35,10.23ZM44.42,6.62a14,14,0,0,0,.86,1.44,39.89,39.89,0,0,0,4.89,5.77c1.28,1.28,4.6,4.46,7.23,5.74a9.38,9.38,0,0,1-13-12.95ZM27.71,48.43c0-1.74.05-3.39.1-5a40,40,0,0,0,8.38,0c.05,1.58.09,3.23.1,5Zm-9.23,0A56.42,56.42,0,0,1,19,41.55a39.84,39.84,0,0,0,6.83,1.67c-.08,1.85-.12,3.62-.13,5.21Zm-3.89-19a29.56,29.56,0,0,0,3.46,6.27c-.24,1-.47,2-.66,3.07a34,34,0,0,1-6.51-3.59A28.89,28.89,0,0,1,14.59,29.47Zm5.11,8.27a20.71,20.71,0,0,0,3.18,2.86,35.37,35.37,0,0,1-3.55-1.05C19.44,38.94,19.57,38.33,19.7,37.74Zm33.42-2.52a34,34,0,0,1-6.51,3.59c-.19-1.05-.42-2.07-.66-3.07a29.56,29.56,0,0,0,3.46-6.27A28.89,28.89,0,0,1,53.12,35.22Zm-8.45,4.33a35.37,35.37,0,0,1-3.55,1.05,20.71,20.71,0,0,0,3.18-2.86C44.43,38.33,44.56,38.94,44.67,39.55ZM27.92,41C28.6,28.07,30.75,21.06,32,20.86h0c1.25.2,3.4,7.21,4.08,20.13a12.41,12.41,0,0,1-8.16,0ZM38,40.18c-.43-7.09-1.38-14.75-3.21-18.67,3.77,1.75,7,6.93,8.91,13.85A18,18,0,0,1,38,40.18ZM29.2,21.51C27.37,25.43,26.42,33.09,26,40.18a18,18,0,0,1-5.7-4.82C22.19,28.44,25.43,23.26,29.2,21.51Zm9.09,26.92c0-1.59,0-3.36-.13-5.21A39.84,39.84,0,0,0,45,41.55a56.42,56.42,0,0,1,.53,6.88Zm9.23,0a59.14,59.14,0,0,0-.59-7.59,36.2,36.2,0,0,0,7-3.77,32.43,32.43,0,0,1,2.38,11.36Zm.38-20.62a28.47,28.47,0,0,1-2.66,5.42c-1.49-4.77-3.63-8.63-6.19-11.15A23.58,23.58,0,0,1,47.9,27.81ZM25,22.08c-2.56,2.52-4.7,6.38-6.19,11.15a28.47,28.47,0,0,1-2.66-5.42A23.58,23.58,0,0,1,25,22.08ZM10,37.07a36.2,36.2,0,0,0,7,3.77,59.14,59.14,0,0,0-.59,7.59H7.66A32.43,32.43,0,0,1,10,37.07ZM5.58,50.43h22.2a5.4,5.4,0,0,0-1.24,3.46V59H9.63Zm23,8.57V53.89a3.46,3.46,0,0,1,6.92,0V59ZM54.4,59H37.46V53.89a5.4,5.4,0,0,0-1.24-3.46h22.2Z"/><path d="M55.57,5A3.44,3.44,0,0,1,59,8.43a1,1,0,1,0,2,0A5.44,5.44,0,0,0,55.57,3a1,1,0,0,0,0,2Z"/></g><text x="0" y="79" fill="#000000" font-size="5px" font-weight="bold" font-family="'Helvetica Neue', Helvetica, Arial-Unicode, Arial, Sans-serif">Created by Colourcreatype</text><text x="0" y="84" fill="#000000" font-size="5px" font-weight="bold" font-family="'Helvetica Neue', Helvetica, Arial-Unicode, Arial, Sans-serif">from the Noun Project</text></svg>