<svg width="49" height="60" viewBox="0 0 49 60" fill="none" xmlns="http://www.w3.org/2000/svg">
<path fill-rule="evenodd" clip-rule="evenodd" d="M45.8244 5.02431C45.1283 4.32987 44.0008 4.32987 43.3048 5.02431L18.3731 29.8994L17.9747 29.7015C17.4596 29.4446 16.8384 29.5453 16.4313 29.9498L11.7575 34.6129C11.3469 35.0243 11.2599 35.6355 11.4965 36.132L10.4438 37.1823L9.97224 36.7101C9.79823 36.5365 9.51462 36.5365 9.34058 36.7101L7.76581 38.2813C7.59181 38.4549 7.59181 38.7362 7.76581 38.9098L8.23911 39.382L3.82982 43.7813C3.48181 43.4341 2.91802 43.4341 2.57003 43.7813C2.22202 44.1285 2.22202 44.6911 2.57003 45.0383L6.03446 48.4948C6.38247 48.8421 6.94626 48.8421 7.29425 48.4948C7.64224 48.1476 7.64226 47.5851 7.29425 47.2379L14.961 39.5886C15.4586 39.8247 16.0711 39.7379 16.4818 39.3282L22.1003 33.7224C22.6415 33.1842 22.6049 32.337 22.1021 31.8352L46.1392 7.85255C46.8352 7.15811 46.8352 6.03309 46.1392 5.33869L45.8244 5.02431ZM45.1944 6.28125L44.8795 5.96701C44.7055 5.7934 44.4236 5.7934 44.2496 5.96701L19.6957 30.4652L21.0616 30.9878L45.1946 6.90959C45.3686 6.73598 45.3685 6.45489 45.1944 6.28125ZM17.4649 31.4341L13.3358 35.5539L15.5404 37.7536L20.4039 32.9011L17.4649 31.4341Z" fill="black"/>
<path d="M3.09556 5.33852C2.39954 6.03296 2.39954 7.15798 3.09556 7.85239L20.3378 25.0537L23.1723 22.2256L5.93013 5.02425C5.2341 4.32981 4.10652 4.32981 3.41055 5.02425L3.09556 5.33852Z" fill="black"/>
<path fill-rule="evenodd" clip-rule="evenodd" d="M28.7893 27.8298L25.9547 30.6579L27.1327 31.835C26.6298 32.3367 26.5951 33.184 27.1345 33.7221L32.753 39.3279C33.1636 39.7376 33.7779 39.8244 34.2738 39.5883L41.9423 47.2377C41.5943 47.5849 41.5943 48.1474 41.9423 48.4946C42.2886 48.8418 42.8541 48.8418 43.2021 48.4946L46.6665 45.038C47.0145 44.6908 47.0145 44.1283 46.6665 43.7811C46.3185 43.4339 45.7547 43.4339 45.4067 43.7811L40.9957 39.3818L41.469 38.9096C41.643 38.736 41.643 38.4547 41.469 38.2811L39.8942 36.7099C39.7202 36.5363 39.4384 36.5363 39.2643 36.7099L38.791 37.1821L37.7383 36.1317C37.9767 35.6352 37.8897 35.0241 37.4773 34.6126L32.8036 29.9495C32.3981 29.545 31.7752 29.4443 31.2619 29.7013L30.8634 29.8992L28.7893 27.8298ZM33.6946 37.7533L28.8311 32.9009L31.7719 31.4339L35.8993 35.5536L33.6946 37.7533Z" fill="black"/>
</svg>
