<svg width="118" height="154" viewBox="0 0 118 154" fill="none" xmlns="http://www.w3.org/2000/svg">
<path d="M45.8764 7.3056H72.1236V26.2256H94.3288C91.6441 19.0216 86.8212 12.8106 80.5067 8.42509C74.1922 4.03961 66.688 1.68933 59 1.68933C51.312 1.68933 43.8078 4.03961 37.4933 8.42509C31.1788 12.8106 26.3559 19.0216 23.6712 26.2256H45.8764V7.3056Z" stroke="#EC944B" stroke-width="3"/>
<path d="M96.6336 36.8724C96.6336 36.0812 96.496 35.2728 96.3756 34.4816C96.144 32.9304 95.834 31.3919 95.4468 29.872H68.4084V10.952H49.5916V29.872H22.5532C22.166 31.3919 21.856 32.9304 21.6244 34.4816C21.504 35.2728 21.4352 36.0812 21.3664 36.8724C21.2976 37.6636 21.2804 38.472 21.2804 39.2804H96.7196C96.7196 38.472 96.6852 37.6808 96.6336 36.8724ZM59 25.1592C58.0679 25.1558 57.1577 24.8761 56.3846 24.3554C55.6115 23.8347 55.0102 23.0965 54.6566 22.234C54.3031 21.3716 54.2132 20.4237 54.3984 19.5101C54.5835 18.5966 55.0355 17.7585 55.697 17.1018C56.3585 16.4451 57.1998 15.9994 58.1147 15.8209C59.0295 15.6424 59.9768 15.7391 60.8366 16.099C61.6964 16.4588 62.4303 17.0655 62.9453 17.8424C63.4603 18.6193 63.7334 19.5315 63.73 20.4636C63.7277 21.0825 63.6036 21.6949 63.3647 22.2658C63.1258 22.8367 62.7767 23.355 62.3375 23.791C61.8983 24.227 61.3775 24.5723 60.8048 24.807C60.2322 25.0418 59.6189 25.1615 59 25.1592Z" stroke="#EC944B" stroke-width="3"/>
<path d="M106.128 138.266V44.0104C106.128 42.7559 105.63 41.5528 104.743 40.6658C103.856 39.7787 102.652 39.2804 101.398 39.2804C101.073 39.278 100.749 39.3185 100.435 39.4008C99.5501 39.5836 98.7383 40.0214 98.0994 40.6602C97.4606 41.299 97.0228 42.1109 96.84 42.9956C96.7722 43.3296 96.7376 43.6696 96.7368 44.0104V42.9956H21.2804V44.0104C21.2796 43.6696 21.245 43.3296 21.1772 42.9956C20.9932 42.1086 20.5528 41.2951 19.9107 40.6561C19.2686 40.0171 18.4531 39.5806 17.5652 39.4008C17.2508 39.3185 16.927 39.278 16.602 39.2804C15.3475 39.2804 14.1444 39.7787 13.2574 40.6658C12.3703 41.5528 11.872 42.7559 11.872 44.0104V138.266C9.2748 138.266 2.46359 145.06 2.46359 147.675C2.46133 148.293 2.58112 148.905 2.81608 149.477C3.05104 150.049 3.39656 150.568 3.83281 151.006C4.26906 151.444 4.78747 151.791 5.35829 152.029C5.92911 152.266 6.54111 152.388 7.1592 152.388H26.0792C27.3307 152.388 28.5312 151.892 29.4177 151.008C30.3043 150.125 30.8047 148.926 30.8092 147.675C30.8092 145.06 23.9292 138.266 21.3492 138.266V114.72C21.3628 117.22 22.3655 119.613 24.1381 121.375C25.9108 123.138 28.3092 124.128 30.8092 124.128H54.27V133.536C51.6728 133.536 44.8616 138.438 44.8616 147.675C44.8662 148.926 45.3665 150.125 46.253 151.008C47.1396 151.892 48.3401 152.388 49.5916 152.388H68.4084C69.6599 152.388 70.8604 151.892 71.747 151.008C72.6335 150.125 73.1339 148.926 73.1384 147.675C73.1384 138.301 66.2584 133.536 63.73 133.536V124.128H87.2596C89.7596 124.128 92.158 123.138 93.9307 121.375C95.7033 119.613 96.706 117.22 96.7196 114.72V138.266C94.1052 138.266 87.2596 145.06 87.2596 147.675C87.2642 148.926 87.7645 150.125 88.6511 151.008C89.5376 151.892 90.7381 152.388 91.9896 152.388H110.91C111.528 152.388 112.14 152.266 112.711 152.029C113.281 151.791 113.8 151.444 114.236 151.006C114.672 150.568 115.018 150.049 115.253 149.477C115.488 148.905 115.607 148.293 115.605 147.675C115.536 145.06 108.725 138.266 106.128 138.266Z" stroke="#EC944B" stroke-width="3"/>
</svg>
