<svg width="44" height="58" viewBox="0 0 44 58" fill="none" xmlns="http://www.w3.org/2000/svg">
<path d="M17.1168 3.06719H26.8832V10.1072H35.1456C34.1466 7.42665 32.352 5.11555 30.0025 3.48375C27.6529 1.85194 24.8606 0.977417 22 0.977417C19.1393 0.977417 16.3471 1.85194 13.9975 3.48375C11.6479 5.11555 9.85334 7.42665 8.85437 10.1072H17.1168V3.06719Z" fill="white"/>
<path d="M36.0031 14.0688C36.0031 13.7744 35.9519 13.4736 35.9071 13.1792C35.821 12.6019 35.7056 12.0295 35.5615 11.464H25.5007V4.42395H18.4991V11.464H8.43832C8.29423 12.0295 8.17888 12.6019 8.09272 13.1792C8.04792 13.4736 8.02232 13.7744 7.99672 14.0688C7.97112 14.3632 7.96472 14.664 7.96472 14.9648H36.0351C36.0351 14.664 36.0223 14.3696 36.0031 14.0688ZM21.9999 9.71035C21.6531 9.70908 21.3144 9.605 21.0268 9.41126C20.7391 9.21752 20.5153 8.94282 20.3838 8.62191C20.2522 8.301 20.2188 7.94829 20.2877 7.60837C20.3566 7.26846 20.5247 6.95661 20.7709 6.71226C21.017 6.46791 21.3301 6.30204 21.6705 6.23562C22.0109 6.1692 22.3634 6.20521 22.6833 6.3391C23.0033 6.473 23.2763 6.69876 23.4679 6.98783C23.6596 7.27691 23.7612 7.61632 23.7599 7.96315C23.7591 8.19344 23.7129 8.4213 23.624 8.63374C23.5351 8.84617 23.4052 9.03902 23.2418 9.20126C23.0784 9.3635 22.8846 9.49197 22.6715 9.57932C22.4584 9.66667 22.2302 9.71119 21.9999 9.71035Z" fill="white"/>
<path d="M39.5359 51.7968V16.7248C39.5359 16.258 39.3505 15.8103 39.0205 15.4802C38.6904 15.1502 38.2427 14.9648 37.7759 14.9648C37.655 14.9639 37.5345 14.9789 37.4175 15.0096C37.0883 15.0776 36.7863 15.2405 36.5486 15.4782C36.3109 15.7159 36.148 16.018 36.0799 16.3472C36.0547 16.4714 36.0418 16.5979 36.0415 16.7248V16.3472H7.96475V16.7248C7.96445 16.5979 7.95159 16.4714 7.92635 16.3472C7.85787 16.0171 7.69401 15.7144 7.45509 15.4767C7.21618 15.2389 6.91272 15.0765 6.58235 15.0096C6.46537 14.9789 6.34486 14.9639 6.22395 14.9648C5.75717 14.9648 5.3095 15.1502 4.97944 15.4802C4.64937 15.8103 4.46395 16.258 4.46395 16.7248V51.7968C3.49755 51.7968 0.963146 54.3248 0.963146 55.2976C0.962304 55.5275 1.00688 55.7554 1.0943 55.9681C1.18173 56.1809 1.3103 56.3742 1.47262 56.5372C1.63495 56.7001 1.82784 56.8293 2.04024 56.9175C2.25264 57.0058 2.48036 57.0512 2.71035 57.0512H9.75035C10.216 57.0512 10.6627 56.8666 10.9926 56.5379C11.3225 56.2092 11.5087 55.7632 11.5103 55.2976C11.5103 54.3248 8.95035 51.7968 7.99035 51.7968V43.0352C7.99542 43.9654 8.36852 44.8558 9.02809 45.5118C9.68767 46.1678 10.5801 46.536 11.5103 46.536H20.2399V50.0368C19.2735 50.0368 16.7391 51.8608 16.7391 55.2976C16.7408 55.7632 16.927 56.2092 17.2569 56.5379C17.5868 56.8666 18.0335 57.0512 18.4991 57.0512H25.5007C25.9664 57.0512 26.4131 56.8666 26.743 56.5379C27.0729 56.2092 27.2591 55.7632 27.2607 55.2976C27.2607 51.8096 24.7007 50.0368 23.7599 50.0368V46.536H32.5151C33.4454 46.536 34.3378 46.1678 34.9974 45.5118C35.657 44.8558 36.0301 43.9654 36.0351 43.0352V51.7968C35.0623 51.7968 32.5151 54.3248 32.5151 55.2976C32.5168 55.7632 32.703 56.2092 33.0329 56.5379C33.3628 56.8666 33.8095 57.0512 34.2751 57.0512H41.3151C41.5451 57.0512 41.7729 57.0058 41.9853 56.9175C42.1977 56.8293 42.3905 56.7001 42.5529 56.5372C42.7152 56.3742 42.8438 56.1809 42.9312 55.9681C43.0186 55.7554 43.0632 55.5275 43.0623 55.2976C43.0367 54.3248 40.5023 51.7968 39.5359 51.7968Z" fill="white"/>
</svg>
