<svg width="153" height="157" viewBox="0 0 153 157" fill="none" xmlns="http://www.w3.org/2000/svg">
<path d="M76.3695 3L62.5394 18.3972C67.4104 25.3565 69.237 33.7075 69.237 37.97C65.0619 30.6629 60.6258 28.5751 56.1027 25.6174L47.2306 35.5343C59.3211 39.7098 66.8015 54.0632 66.8015 68.9385C66.8015 76.0717 64.366 93.2087 47.2306 92.4258V92.3389C34.6182 90.86 22.7887 76.1587 21.7449 60.2395C20.7011 44.3203 27.3987 28.8361 38.5324 15.9615C17.4828 28.4881 3.9136 50.4966 2.17396 74.8538C2.17396 75.4628 2.08698 76.0717 2.08698 76.6806C2.08698 77.2896 2 77.8985 2 78.5944C2 79.2033 2 79.8993 2 80.5082C2 121.655 35.401 155.059 76.5435 154.972C117.686 154.972 151 121.655 151 80.5082C151 78.5944 150.913 76.6806 150.826 74.7668C148.999 50.4096 135.43 28.4011 114.468 15.8745H114.381C125.514 28.7491 132.299 44.2333 131.255 60.1525C130.211 76.0717 118.382 90.773 105.769 92.2519V92.3389C88.721 93.1218 86.1985 75.9847 86.1985 68.8515C86.1985 53.9762 93.592 39.6228 105.769 35.4473L96.8103 25.5304C92.3742 28.5751 87.8511 30.6629 83.676 37.883C83.676 33.7075 85.5026 25.2695 90.3736 18.3103L76.3695 3Z" stroke="#F49446" stroke-width="3"/>
</svg>
