<svg width="56" height="57" viewBox="0 0 56 57" fill="none" xmlns="http://www.w3.org/2000/svg">
<path d="M27.951 0L22.7531 5.77504C24.5838 8.38522 25.2703 11.5174 25.2703 13.1162C23.7011 10.3755 22.0339 9.59243 20.3339 8.4831L16.9994 12.2026C21.5435 13.7687 24.3549 19.1522 24.3549 24.7315C24.3549 27.407 23.4396 33.8345 16.9994 33.5409V33.5083C12.2592 32.9536 7.81319 27.4396 7.4209 21.4688C7.0286 15.498 9.54583 9.69031 13.7303 4.86147C5.81903 9.55981 0.719205 17.8145 0.0653814 26.9502C0.0653814 27.1786 0.0326907 27.407 0.0326907 27.6353C0.0326907 27.8637 0 28.0921 0 28.3531C0 28.5815 0 28.8426 0 29.0709C0 44.5037 12.5534 57.0326 28.0163 56.9999C43.4793 56.9999 56 44.5037 56 29.0709C56 28.3531 55.9673 27.6353 55.9346 26.9175C55.2481 17.7819 50.1483 9.52718 42.2697 4.82884H42.237C46.4215 9.65769 48.9714 15.4654 48.5791 21.4362C48.1868 27.407 43.7408 32.921 39.0006 33.4756V33.5083C32.5931 33.8019 31.6451 27.3743 31.6451 24.6989C31.6451 19.1196 34.4238 13.7361 39.0006 12.17L35.6334 8.45048C33.9661 9.59243 32.2662 10.3755 30.697 13.0836C30.697 11.5174 31.3835 8.35259 33.2142 5.74241L27.951 0Z" fill="white"/>
</svg>
