<svg width="130" height="66" viewBox="0 0 130 66" fill="none" xmlns="http://www.w3.org/2000/svg">
<mask id="path-1-outside-1_16_115" maskUnits="userSpaceOnUse" x="0" y="0" width="130" height="66" fill="black">
<rect fill="white" width="130" height="66"/>
<path d="M17.9274 11.0088V2.19469H26.2635V27.7522H17.9274V18.5487H11.223V27.7522H2.88682V2.19469H11.223V11.0088H17.9274Z"/>
<path d="M28.0372 27.7522V2.19469H49.9949V9.80531H36.3733V12.7434H45.1706V17.2035H36.3733V20.1416H52.1588V27.7522H28.0372Z"/>
<path d="M52.1588 27.7522V2.19469H60.4949V20.1416H74.3649V27.7522H52.1588Z"/>
<path d="M75.4291 27.7522V2.19469H83.7652V20.1416H97.6351V27.7522H75.4291Z"/>
<path d="M127.22 15.115C127.22 17.9115 126.634 20.295 125.464 22.2655C124.293 24.236 122.596 25.7168 120.373 26.708C118.162 27.6991 115.519 28.1947 112.445 28.1947C109.371 28.1947 106.728 27.6991 104.517 26.708C102.318 25.705 100.65 24.2301 99.5152 22.2832C98.3801 20.3245 97.8125 17.9351 97.8125 15.115C97.8125 12.9794 98.1377 11.1032 98.788 9.48673C99.4383 7.85841 100.39 6.48968 101.644 5.38053C102.897 4.27139 104.434 3.43363 106.255 2.86726C108.076 2.28909 110.139 2 112.445 2C115.508 2 118.15 2.50737 120.373 3.52212C122.596 4.52507 124.293 6.0118 125.464 7.9823C126.634 9.941 127.22 12.3186 127.22 15.115ZM106.911 15.1858C106.911 16.826 107.278 18.2537 108.011 19.469C108.756 20.6844 110.216 21.292 112.392 21.292C114.071 21.292 115.324 20.9735 116.152 20.3363C116.992 19.6991 117.512 18.9735 117.713 18.1593C117.926 17.3333 118.068 16.3422 118.139 15.1858C118.068 13.5457 117.671 12.118 116.95 10.9027C116.229 9.67552 114.709 9.06195 112.392 9.06195C108.738 9.06195 106.911 11.1032 106.911 15.1858Z"/>
<path d="M26.5828 38.4425V46.0531H18.4595V64H10.1233V46.0531H2V38.4425H26.5828Z"/>
<path d="M42.1554 47.2566V38.4425H50.4916V64H42.1554V54.7965H35.451V64H27.1149V38.4425H35.451V47.2566H42.1554Z"/>
<path d="M52.2652 64V38.4425H74.223V46.0531H60.6014V48.9912H69.3987V53.4513H60.6014V56.3894H76.3868V64H52.2652Z"/>
<path d="M76.3868 64V38.4425H93.0591C95.1166 38.6313 96.8074 39.174 98.1318 40.0708C99.4561 40.9676 100.426 42.1711 101.041 43.6814C101.514 45.9469 101.537 47.6932 101.111 48.9204C100.686 50.1475 99.9409 51.174 98.8767 52C97.8125 52.826 96.2872 53.4749 94.3007 53.9469L96.2162 56.3894H103.878V64H93.7686L85.6453 55.5575V64H76.3868ZM85.6453 44.8142V49.5221H92.1014C92.4443 49.5221 92.8167 49.3982 93.2188 49.1504C93.6208 48.8909 93.8336 48.2478 93.8573 47.2212C93.7981 46.2419 93.5557 45.5988 93.1301 45.292C92.7162 44.9735 92.3674 44.8142 92.0836 44.8142H85.6453Z"/>
<path d="M103.878 64V38.4425H125.836V46.0531H112.215V48.9912H121.012V53.4513H112.215V56.3894H128V64H103.878Z"/>
</mask>
<path d="M17.9274 11.0088V2.19469H26.2635V27.7522H17.9274V18.5487H11.223V27.7522H2.88682V2.19469H11.223V11.0088H17.9274Z" fill="#EC944B"/>
<path d="M28.0372 27.7522V2.19469H49.9949V9.80531H36.3733V12.7434H45.1706V17.2035H36.3733V20.1416H52.1588V27.7522H28.0372Z" fill="#EC944B"/>
<path d="M52.1588 27.7522V2.19469H60.4949V20.1416H74.3649V27.7522H52.1588Z" fill="#EC944B"/>
<path d="M75.4291 27.7522V2.19469H83.7652V20.1416H97.6351V27.7522H75.4291Z" fill="#EC944B"/>
<path d="M127.22 15.115C127.22 17.9115 126.634 20.295 125.464 22.2655C124.293 24.236 122.596 25.7168 120.373 26.708C118.162 27.6991 115.519 28.1947 112.445 28.1947C109.371 28.1947 106.728 27.6991 104.517 26.708C102.318 25.705 100.65 24.2301 99.5152 22.2832C98.3801 20.3245 97.8125 17.9351 97.8125 15.115C97.8125 12.9794 98.1377 11.1032 98.788 9.48673C99.4383 7.85841 100.39 6.48968 101.644 5.38053C102.897 4.27139 104.434 3.43363 106.255 2.86726C108.076 2.28909 110.139 2 112.445 2C115.508 2 118.15 2.50737 120.373 3.52212C122.596 4.52507 124.293 6.0118 125.464 7.9823C126.634 9.941 127.22 12.3186 127.22 15.115ZM106.911 15.1858C106.911 16.826 107.278 18.2537 108.011 19.469C108.756 20.6844 110.216 21.292 112.392 21.292C114.071 21.292 115.324 20.9735 116.152 20.3363C116.992 19.6991 117.512 18.9735 117.713 18.1593C117.926 17.3333 118.068 16.3422 118.139 15.1858C118.068 13.5457 117.671 12.118 116.95 10.9027C116.229 9.67552 114.709 9.06195 112.392 9.06195C108.738 9.06195 106.911 11.1032 106.911 15.1858Z" fill="#EC944B"/>
<path d="M26.5828 38.4425V46.0531H18.4595V64H10.1233V46.0531H2V38.4425H26.5828Z" fill="#EC944B"/>
<path d="M42.1554 47.2566V38.4425H50.4916V64H42.1554V54.7965H35.451V64H27.1149V38.4425H35.451V47.2566H42.1554Z" fill="#EC944B"/>
<path d="M52.2652 64V38.4425H74.223V46.0531H60.6014V48.9912H69.3987V53.4513H60.6014V56.3894H76.3868V64H52.2652Z" fill="#EC944B"/>
<path d="M76.3868 64V38.4425H93.0591C95.1166 38.6313 96.8074 39.174 98.1318 40.0708C99.4561 40.9676 100.426 42.1711 101.041 43.6814C101.514 45.9469 101.537 47.6932 101.111 48.9204C100.686 50.1475 99.9409 51.174 98.8767 52C97.8125 52.826 96.2872 53.4749 94.3007 53.9469L96.2162 56.3894H103.878V64H93.7686L85.6453 55.5575V64H76.3868ZM85.6453 44.8142V49.5221H92.1014C92.4443 49.5221 92.8167 49.3982 93.2188 49.1504C93.6208 48.8909 93.8336 48.2478 93.8573 47.2212C93.7981 46.2419 93.5557 45.5988 93.1301 45.292C92.7162 44.9735 92.3674 44.8142 92.0836 44.8142H85.6453Z" fill="#EC944B"/>
<path d="M103.878 64V38.4425H125.836V46.0531H112.215V48.9912H121.012V53.4513H112.215V56.3894H128V64H103.878Z" fill="#EC944B"/>
<path d="M17.9274 11.0088V13.0088H19.9274V11.0088H17.9274ZM17.9274 2.19469V0.19469H15.9274V2.19469H17.9274ZM26.2635 2.19469H28.2635V0.19469H26.2635V2.19469ZM26.2635 27.7522V29.7522H28.2635V27.7522H26.2635ZM17.9274 27.7522H15.9274V29.7522H17.9274V27.7522ZM17.9274 18.5487H19.9274V16.5487H17.9274V18.5487ZM11.223 18.5487V16.5487H9.22297V18.5487H11.223ZM11.223 27.7522V29.7522H13.223V27.7522H11.223ZM2.88682 27.7522H0.886824V29.7522H2.88682V27.7522ZM2.88682 2.19469V0.19469H0.886824V2.19469H2.88682ZM11.223 2.19469H13.223V0.19469H11.223V2.19469ZM11.223 11.0088H9.22297V13.0088H11.223V11.0088ZM28.0372 27.7522H26.0372V29.7522H28.0372V27.7522ZM28.0372 2.19469V0.19469H26.0372V2.19469H28.0372ZM49.9949 2.19469H51.9949V0.19469H49.9949V2.19469ZM49.9949 9.80531V11.8053H51.9949V9.80531H49.9949ZM36.3733 9.80531V7.80531H34.3733V9.80531H36.3733ZM36.3733 12.7434H34.3733V14.7434H36.3733V12.7434ZM45.1706 12.7434H47.1706V10.7434H45.1706V12.7434ZM45.1706 17.2035V19.2035H47.1706V17.2035H45.1706ZM36.3733 17.2035V15.2035H34.3733V17.2035H36.3733ZM36.3733 20.1416H34.3733V22.1416H36.3733V20.1416ZM52.1588 20.1416H54.1588V18.1416H52.1588V20.1416ZM52.1588 2.19469V0.19469H50.1588V2.19469H52.1588ZM60.4949 2.19469H62.4949V0.19469H60.4949V2.19469ZM60.4949 20.1416H58.4949V22.1416H60.4949V20.1416ZM74.3649 20.1416H76.3649V18.1416H74.3649V20.1416ZM74.3649 27.7522V29.7522H76.3649V27.7522H74.3649ZM75.4291 27.7522H73.4291V29.7522H75.4291V27.7522ZM75.4291 2.19469V0.19469H73.4291V2.19469H75.4291ZM83.7652 2.19469H85.7652V0.19469H83.7652V2.19469ZM83.7652 20.1416H81.7652V22.1416H83.7652V20.1416ZM97.6351 20.1416H99.6351V18.1416H97.6351V20.1416ZM97.6351 27.7522V29.7522H99.6351V27.7522H97.6351ZM120.373 26.708L119.559 24.8813L119.555 24.8829L120.373 26.708ZM104.517 26.708L103.687 28.5277L103.699 28.533L104.517 26.708ZM99.5152 22.2832L97.7848 23.286L97.7874 23.2906L99.5152 22.2832ZM98.788 9.48673L100.643 10.2332L100.645 10.2285L98.788 9.48673ZM106.255 2.86726L106.849 4.77705L106.86 4.77348L106.255 2.86726ZM120.373 3.52212L119.543 5.34154L119.551 5.34516L120.373 3.52212ZM125.464 7.9823L123.744 9.00378L123.747 9.00832L125.464 7.9823ZM108.011 19.469L106.298 20.5021L106.302 20.5081L106.306 20.5142L108.011 19.469ZM116.152 20.3363L114.943 18.7431L114.932 18.7515L116.152 20.3363ZM117.713 18.1593L115.776 17.6602L115.774 17.67L115.771 17.6799L117.713 18.1593ZM118.139 15.1858L120.135 15.3083L120.141 15.2039L120.137 15.0994L118.139 15.1858ZM116.95 10.9027L115.226 11.9161L115.23 11.9234L116.95 10.9027ZM26.5828 38.4425H28.5828V36.4425H26.5828V38.4425ZM26.5828 46.0531V48.0531H28.5828V46.0531H26.5828ZM18.4595 46.0531V44.0531H16.4595V46.0531H18.4595ZM18.4595 64V66H20.4595V64H18.4595ZM10.1233 64H8.12331V66H10.1233V64ZM10.1233 46.0531H12.1233V44.0531H10.1233V46.0531ZM2 46.0531H0V48.0531H2V46.0531ZM2 38.4425V36.4425H0V38.4425H2ZM42.1554 47.2566V49.2566H44.1554V47.2566H42.1554ZM42.1554 38.4425V36.4425H40.1554V38.4425H42.1554ZM50.4916 38.4425H52.4916V36.4425H50.4916V38.4425ZM50.4916 64V66H52.4916V64H50.4916ZM42.1554 64H40.1554V66H42.1554V64ZM42.1554 54.7965H44.1554V52.7965H42.1554V54.7965ZM35.451 54.7965V52.7965H33.451V54.7965H35.451ZM35.451 64V66H37.451V64H35.451ZM27.1149 64H25.1149V66H27.1149V64ZM27.1149 38.4425V36.4425H25.1149V38.4425H27.1149ZM35.451 38.4425H37.451V36.4425H35.451V38.4425ZM35.451 47.2566H33.451V49.2566H35.451V47.2566ZM52.2652 64H50.2652V66H52.2652V64ZM52.2652 38.4425V36.4425H50.2652V38.4425H52.2652ZM74.223 38.4425H76.223V36.4425H74.223V38.4425ZM74.223 46.0531V48.0531H76.223V46.0531H74.223ZM60.6014 46.0531V44.0531H58.6014V46.0531H60.6014ZM60.6014 48.9912H58.6014V50.9912H60.6014V48.9912ZM69.3987 48.9912H71.3987V46.9912H69.3987V48.9912ZM69.3987 53.4513V55.4513H71.3987V53.4513H69.3987ZM60.6014 53.4513V51.4513H58.6014V53.4513H60.6014ZM60.6014 56.3894H58.6014V58.3894H60.6014V56.3894ZM76.3868 56.3894H78.3868V54.3894H76.3868V56.3894ZM76.3868 38.4425V36.4425H74.3868V38.4425H76.3868ZM93.0591 38.4425L93.2419 36.4508L93.1507 36.4425H93.0591V38.4425ZM101.041 43.6814L102.998 43.2727L102.961 43.0952L102.893 42.9273L101.041 43.6814ZM94.3007 53.9469L93.8384 52.0011L90.7992 52.7231L92.7269 55.1811L94.3007 53.9469ZM96.2162 56.3894L94.6425 57.6236L95.243 58.3894H96.2162V56.3894ZM103.878 56.3894H105.878V54.3894H103.878V56.3894ZM93.7686 64L92.3274 65.3867L92.9175 66H93.7686V64ZM85.6453 55.5575L87.0865 54.1708L83.6453 50.5944V55.5575H85.6453ZM85.6453 64V66H87.6453V64H85.6453ZM85.6453 44.8142V42.8142H83.6453V44.8142H85.6453ZM85.6453 49.5221H83.6453V51.5221H85.6453V49.5221ZM93.2188 49.1504L94.2681 50.853L94.286 50.842L94.3036 50.8306L93.2188 49.1504ZM93.8573 47.2212L95.8567 47.2673L95.8587 47.1839L95.8536 47.1007L93.8573 47.2212ZM93.1301 45.292L91.9101 46.8768L91.9351 46.8961L91.9607 46.9146L93.1301 45.292ZM103.878 38.4425V36.4425H101.878V38.4425H103.878ZM125.836 38.4425H127.836V36.4425H125.836V38.4425ZM125.836 46.0531V48.0531H127.836V46.0531H125.836ZM112.215 46.0531V44.0531H110.215V46.0531H112.215ZM112.215 48.9912H110.215V50.9912H112.215V48.9912ZM121.012 48.9912H123.012V46.9912H121.012V48.9912ZM121.012 53.4513V55.4513H123.012V53.4513H121.012ZM112.215 53.4513V51.4513H110.215V53.4513H112.215ZM112.215 56.3894H110.215V58.3894H112.215V56.3894ZM128 56.3894H130V54.3894H128V56.3894ZM128 64V66H130V64H128ZM19.9274 11.0088V2.19469H15.9274V11.0088H19.9274ZM17.9274 4.19469H26.2635V0.19469H17.9274V4.19469ZM24.2635 2.19469V27.7522H28.2635V2.19469H24.2635ZM26.2635 25.7522H17.9274V29.7522H26.2635V25.7522ZM19.9274 27.7522V18.5487H15.9274V27.7522H19.9274ZM17.9274 16.5487H11.223V20.5487H17.9274V16.5487ZM9.22297 18.5487V27.7522H13.223V18.5487H9.22297ZM11.223 25.7522H2.88682V29.7522H11.223V25.7522ZM4.88682 27.7522V2.19469H0.886824V27.7522H4.88682ZM2.88682 4.19469H11.223V0.19469H2.88682V4.19469ZM9.22297 2.19469V11.0088H13.223V2.19469H9.22297ZM11.223 13.0088H17.9274V9.00885H11.223V13.0088ZM30.0372 27.7522V2.19469H26.0372V27.7522H30.0372ZM28.0372 4.19469H49.9949V0.19469H28.0372V4.19469ZM47.9949 2.19469V9.80531H51.9949V2.19469H47.9949ZM49.9949 7.80531H36.3733V11.8053H49.9949V7.80531ZM34.3733 9.80531V12.7434H38.3733V9.80531H34.3733ZM36.3733 14.7434H45.1706V10.7434H36.3733V14.7434ZM43.1706 12.7434V17.2035H47.1706V12.7434H43.1706ZM45.1706 15.2035H36.3733V19.2035H45.1706V15.2035ZM34.3733 17.2035V20.1416H38.3733V17.2035H34.3733ZM36.3733 22.1416H52.1588V18.1416H36.3733V22.1416ZM50.1588 20.1416V27.7522H54.1588V20.1416H50.1588ZM52.1588 25.7522H28.0372V29.7522H52.1588V25.7522ZM54.1588 27.7522V2.19469H50.1588V27.7522H54.1588ZM52.1588 4.19469H60.4949V0.19469H52.1588V4.19469ZM58.4949 2.19469V20.1416H62.4949V2.19469H58.4949ZM60.4949 22.1416H74.3649V18.1416H60.4949V22.1416ZM72.3649 20.1416V27.7522H76.3649V20.1416H72.3649ZM74.3649 25.7522H52.1588V29.7522H74.3649V25.7522ZM77.4291 27.7522V2.19469H73.4291V27.7522H77.4291ZM75.4291 4.19469H83.7652V0.19469H75.4291V4.19469ZM81.7652 2.19469V20.1416H85.7652V2.19469H81.7652ZM83.7652 22.1416H97.6351V18.1416H83.7652V22.1416ZM95.6351 20.1416V27.7522H99.6351V20.1416H95.6351ZM97.6351 25.7522H75.4291V29.7522H97.6351V25.7522ZM125.22 15.115C125.22 17.631 124.695 19.6441 123.744 21.244L127.183 23.287C128.574 20.9459 129.22 18.192 129.22 15.115H125.22ZM123.744 21.244C122.798 22.8364 121.429 24.0475 119.559 24.8813L121.188 28.5346C123.764 27.3861 125.788 25.6356 127.183 23.287L123.744 21.244ZM119.555 24.8829C117.661 25.7322 115.311 26.1947 112.445 26.1947V30.1947C115.728 30.1947 118.664 29.6661 121.191 28.533L119.555 24.8829ZM112.445 26.1947C109.58 26.1947 107.23 25.7322 105.335 24.8829L103.699 28.533C106.227 29.6661 109.162 30.1947 112.445 30.1947V26.1947ZM105.347 24.8882C103.495 24.0437 102.155 22.8392 101.243 21.2758L97.7874 23.2906C99.1461 25.6209 101.14 27.3664 103.687 28.5277L105.347 24.8882ZM101.246 21.2804C100.326 19.6928 99.8125 17.6685 99.8125 15.115H95.8125C95.8125 18.2017 96.4346 20.9562 97.7848 23.286L101.246 21.2804ZM99.8125 15.115C99.8125 13.1791 100.108 11.5655 100.643 10.2332L96.9325 8.74025C96.1678 10.641 95.8125 12.7796 95.8125 15.115H99.8125ZM100.645 10.2285C101.186 8.87605 101.961 7.77053 102.969 6.87829L100.318 3.88277C98.8197 5.20882 97.6912 6.84076 96.9307 8.74492L100.645 10.2285ZM102.969 6.87829C103.983 5.98113 105.261 5.27104 106.849 4.77701L105.661 0.9575C103.608 1.59622 101.811 2.56164 100.318 3.88277L102.969 6.87829ZM106.86 4.77348C108.45 4.26876 110.304 4 112.445 4V0C109.975 0 107.702 0.309413 105.65 0.961036L106.86 4.77348ZM112.445 4C115.291 4 117.638 4.47192 119.543 5.34153L121.204 1.70272C118.663 0.542831 115.724 0 112.445 0V4ZM119.551 5.34516C121.425 6.19073 122.797 7.40933 123.744 9.00378L127.183 6.96082C125.789 4.61427 123.768 2.85942 121.196 1.69908L119.551 5.34516ZM123.747 9.00832C124.694 10.5938 125.22 12.5986 125.22 15.115H129.22C129.22 12.0385 128.574 9.28817 127.18 6.95628L123.747 9.00832ZM104.911 15.1858C104.911 17.1325 105.35 18.9291 106.298 20.5021L109.724 18.436C109.206 17.5783 108.911 16.5194 108.911 15.1858H104.911ZM106.306 20.5142C107.58 22.5933 109.911 23.292 112.392 23.292V19.292C110.521 19.292 109.932 18.7754 109.716 18.4239L106.306 20.5142ZM112.392 23.292C114.264 23.292 116.039 22.9475 117.372 21.9211L114.932 18.7515C114.61 18.9994 113.878 19.292 112.392 19.292V23.292ZM117.361 21.9294C118.469 21.0883 119.318 20.001 119.655 18.6387L115.771 17.6799C115.705 17.9459 115.514 18.3099 114.943 18.7432L117.361 21.9294ZM119.65 18.6584C119.903 17.6742 120.059 16.55 120.135 15.3083L116.142 15.0634C116.077 16.1344 115.948 16.9925 115.776 17.6602L119.65 18.6584ZM120.137 15.0994C120.054 13.1832 119.585 11.4237 118.67 9.88192L115.23 11.9234C115.758 12.8123 116.081 13.9082 116.14 15.2723L120.137 15.0994ZM118.674 9.8892C117.408 7.73466 114.953 7.06195 112.392 7.06195V11.0619C114.466 11.0619 115.05 11.6164 115.226 11.9161L118.674 9.8892ZM112.392 7.06195C110.196 7.06195 108.199 7.68561 106.791 9.25915C105.421 10.7904 104.911 12.8876 104.911 15.1858H108.911C108.911 13.4015 109.315 12.4367 109.772 11.9267C110.19 11.4589 110.934 11.0619 112.392 11.0619V7.06195ZM24.5828 38.4425V46.0531H28.5828V38.4425H24.5828ZM26.5828 44.0531H18.4595V48.0531H26.5828V44.0531ZM16.4595 46.0531V64H20.4595V46.0531H16.4595ZM18.4595 62H10.1233V66H18.4595V62ZM12.1233 64V46.0531H8.12331V64H12.1233ZM10.1233 44.0531H2V48.0531H10.1233V44.0531ZM4 46.0531V38.4425H0V46.0531H4ZM2 40.4425H26.5828V36.4425H2V40.4425ZM44.1554 47.2566V38.4425H40.1554V47.2566H44.1554ZM42.1554 40.4425H50.4916V36.4425H42.1554V40.4425ZM48.4916 38.4425V64H52.4916V38.4425H48.4916ZM50.4916 62H42.1554V66H50.4916V62ZM44.1554 64V54.7965H40.1554V64H44.1554ZM42.1554 52.7965H35.451V56.7965H42.1554V52.7965ZM33.451 54.7965V64H37.451V54.7965H33.451ZM35.451 62H27.1149V66H35.451V62ZM29.1149 64V38.4425H25.1149V64H29.1149ZM27.1149 40.4425H35.451V36.4425H27.1149V40.4425ZM33.451 38.4425V47.2566H37.451V38.4425H33.451ZM35.451 49.2566H42.1554V45.2566H35.451V49.2566ZM54.2652 64V38.4425H50.2652V64H54.2652ZM52.2652 40.4425H74.223V36.4425H52.2652V40.4425ZM72.223 38.4425V46.0531H76.223V38.4425H72.223ZM74.223 44.0531H60.6014V48.0531H74.223V44.0531ZM58.6014 46.0531V48.9912H62.6014V46.0531H58.6014ZM60.6014 50.9912H69.3987V46.9912H60.6014V50.9912ZM67.3987 48.9912V53.4513H71.3987V48.9912H67.3987ZM69.3987 51.4513H60.6014V55.4513H69.3987V51.4513ZM58.6014 53.4513V56.3894H62.6014V53.4513H58.6014ZM60.6014 58.3894H76.3868V54.3894H60.6014V58.3894ZM74.3868 56.3894V64H78.3868V56.3894H74.3868ZM76.3868 62H52.2652V66H76.3868V62ZM78.3868 64V38.4425H74.3868V64H78.3868ZM76.3868 40.4425H93.0591V36.4425H76.3868V40.4425ZM92.8764 40.4341C94.6931 40.6008 96.0355 41.0667 97.0104 41.7268L99.2531 38.4147C97.5794 37.2814 95.54 36.6617 93.2419 36.4508L92.8764 40.4341ZM97.0104 41.7268C98.0005 42.3973 98.7193 43.2839 99.1882 44.4355L102.893 42.9273C102.132 41.0583 100.912 39.5378 99.2531 38.4147L97.0104 41.7268ZM99.0828 44.0901C99.5317 46.2406 99.4686 47.5539 99.2219 48.2649L103.001 49.5758C103.606 47.8325 103.495 45.6532 102.998 43.2727L99.0828 44.0901ZM99.2219 48.2649C98.9281 49.1121 98.4207 49.8222 97.6504 50.42L100.103 53.58C101.461 52.5259 102.444 51.1829 103.001 49.5758L99.2219 48.2649ZM97.6504 50.42C96.8977 51.0043 95.6769 51.5643 93.8384 52.0011L94.763 55.8927C96.8975 55.3856 98.7273 54.6476 100.103 53.58L97.6504 50.42ZM92.7269 55.1811L94.6425 57.6236L97.79 55.1552L95.8744 52.7127L92.7269 55.1811ZM96.2162 58.3894H103.878V54.3894H96.2162V58.3894ZM101.878 56.3894V64H105.878V56.3894H101.878ZM103.878 62H93.7686V66H103.878V62ZM95.2098 62.6133L87.0865 54.1708L84.2041 56.9442L92.3274 65.3867L95.2098 62.6133ZM83.6453 55.5575V64H87.6453V55.5575H83.6453ZM85.6453 62H76.3868V66H85.6453V62ZM83.6453 44.8142V49.5221H87.6453V44.8142H83.6453ZM85.6453 51.5221H92.1014V47.5221H85.6453V51.5221ZM92.1014 51.5221C92.9295 51.5221 93.665 51.2247 94.2681 50.853L92.1694 47.4479C92.0741 47.5066 92.0204 47.5269 92.0066 47.5314C91.995 47.5353 92.0297 47.5221 92.1014 47.5221V51.5221ZM94.3036 50.8306C95.0194 50.3685 95.3872 49.6801 95.5786 49.1019C95.7706 48.5219 95.8424 47.8876 95.8567 47.2673L91.8578 47.1752C91.8533 47.3696 91.8403 47.5223 91.8238 47.6388C91.8071 47.7566 91.7891 47.8211 91.7812 47.845C91.7597 47.9098 91.8202 47.6728 92.1339 47.4703L94.3036 50.8306ZM95.8536 47.1007C95.7875 46.0046 95.5018 44.536 94.2994 43.6695L91.9607 46.9146C91.7692 46.7766 91.7349 46.644 91.7597 46.7099C91.787 46.7825 91.8387 46.9742 91.8609 47.3418L95.8536 47.1007ZM94.3501 43.7072C93.8431 43.317 93.0493 42.8142 92.0836 42.8142V46.8142C91.9676 46.8142 91.8777 46.7979 91.8203 46.7835C91.7635 46.7692 91.7317 46.7549 91.7273 46.7529C91.7225 46.7507 91.7365 46.7568 91.7699 46.7778C91.8031 46.7985 91.8496 46.8303 91.9101 46.8768L94.3501 43.7072ZM92.0836 42.8142H85.6453V46.8142H92.0836V42.8142ZM105.878 64V38.4425H101.878V64H105.878ZM103.878 40.4425H125.836V36.4425H103.878V40.4425ZM123.836 38.4425V46.0531H127.836V38.4425H123.836ZM125.836 44.0531H112.215V48.0531H125.836V44.0531ZM110.215 46.0531V48.9912H114.215V46.0531H110.215ZM112.215 50.9912H121.012V46.9912H112.215V50.9912ZM119.012 48.9912V53.4513H123.012V48.9912H119.012ZM121.012 51.4513H112.215V55.4513H121.012V51.4513ZM110.215 53.4513V56.3894H114.215V53.4513H110.215ZM112.215 58.3894H128V54.3894H112.215V58.3894ZM126 56.3894V64H130V56.3894H126ZM128 62H103.878V66H128V62Z" fill="#2A5A97" mask="url(#path-1-outside-1_16_115)"/>
</svg>
