<svg width="auto" height="59" viewBox="0 0 115 59" fill="none" xmlns="http://www.w3.org/2000/svg">
<mask id="path-1-outside-1_16_113" maskUnits="userSpaceOnUse" x="0" y="0" width="115" height="59" fill="black">
<rect fill="white" width="115" height="59"/>
<path d="M16.0312 9.95312V2.17188H23.375V24.7344H16.0312V16.6094H10.125V24.7344H2.78125V2.17188H10.125V9.95312H16.0312Z"/>
<path d="M24.9375 24.7344V2.17188H44.2812V8.89062H32.2812V11.4844H40.0312V15.4219H32.2812V18.0156H46.1875V24.7344H24.9375Z"/>
<path d="M46.1875 24.7344V2.17188H53.5312V18.0156H65.75V24.7344H46.1875Z"/>
<path d="M66.6875 24.7344V2.17188H74.0312V18.0156H86.25V24.7344H66.6875Z"/>
<path d="M112.312 13.5781C112.312 16.0469 111.797 18.151 110.766 19.8906C109.734 21.6302 108.24 22.9375 106.281 23.8125C104.333 24.6875 102.005 25.125 99.2969 25.125C96.5885 25.125 94.2604 24.6875 92.3125 23.8125C90.375 22.9271 88.9062 21.625 87.9062 19.9062C86.9062 18.1771 86.4062 16.0677 86.4062 13.5781C86.4062 11.6927 86.6927 10.0365 87.2656 8.60938C87.8385 7.17188 88.6771 5.96354 89.7812 4.98438C90.8854 4.00521 92.2396 3.26562 93.8438 2.76562C95.4479 2.25521 97.2656 2 99.2969 2C101.995 2 104.323 2.44792 106.281 3.34375C108.24 4.22917 109.734 5.54167 110.766 7.28125C111.797 9.01042 112.312 11.1094 112.312 13.5781ZM94.4219 13.6406C94.4219 15.0885 94.7448 16.349 95.3906 17.4219C96.0469 18.4948 97.3333 19.0312 99.25 19.0312C100.729 19.0312 101.833 18.75 102.562 18.1875C103.302 17.625 103.76 16.9844 103.938 16.2656C104.125 15.5365 104.25 14.6615 104.312 13.6406C104.25 12.1927 103.901 10.9323 103.266 9.85938C102.63 8.77604 101.292 8.23438 99.25 8.23438C96.0312 8.23438 94.4219 10.0365 94.4219 13.6406Z"/>
<path d="M23.6562 34.1719V40.8906H16.5V56.7344H9.15625V40.8906H2V34.1719H23.6562Z"/>
<path d="M37.375 41.9531V34.1719H44.7188V56.7344H37.375V48.6094H31.4688V56.7344H24.125V34.1719H31.4688V41.9531H37.375Z"/>
<path d="M46.2812 56.7344V34.1719H65.625V40.8906H53.625V43.4844H61.375V47.4219H53.625V50.0156H67.5312V56.7344H46.2812Z"/>
<path d="M67.5312 56.7344V34.1719H82.2188C84.0312 34.3385 85.5208 34.8177 86.6875 35.6094C87.8542 36.401 88.7083 37.4635 89.25 38.7969C89.6667 40.7969 89.6875 42.3385 89.3125 43.4219C88.9375 44.5052 88.2812 45.4115 87.3438 46.1406C86.4062 46.8698 85.0625 47.4427 83.3125 47.8594L85 50.0156H91.75V56.7344H82.8438L75.6875 49.2812V56.7344H67.5312ZM75.6875 39.7969V43.9531H81.375C81.6771 43.9531 82.0052 43.8438 82.3594 43.625C82.7135 43.3958 82.901 42.8281 82.9219 41.9219C82.8698 41.0573 82.6562 40.4896 82.2812 40.2188C81.9167 39.9375 81.6094 39.7969 81.3594 39.7969H75.6875Z"/>
<path d="M91.75 56.7344V34.1719H111.094V40.8906H99.0938V43.4844H106.844V47.4219H99.0938V50.0156H113V56.7344H91.75Z"/>
</mask>
<path d="M16.0312 9.95312V2.17188H23.375V24.7344H16.0312V16.6094H10.125V24.7344H2.78125V2.17188H10.125V9.95312H16.0312Z" fill="#EC944B"/>
<path d="M24.9375 24.7344V2.17188H44.2812V8.89062H32.2812V11.4844H40.0312V15.4219H32.2812V18.0156H46.1875V24.7344H24.9375Z" fill="#EC944B"/>
<path d="M46.1875 24.7344V2.17188H53.5312V18.0156H65.75V24.7344H46.1875Z" fill="#EC944B"/>
<path d="M66.6875 24.7344V2.17188H74.0312V18.0156H86.25V24.7344H66.6875Z" fill="#EC944B"/>
<path d="M112.312 13.5781C112.312 16.0469 111.797 18.151 110.766 19.8906C109.734 21.6302 108.24 22.9375 106.281 23.8125C104.333 24.6875 102.005 25.125 99.2969 25.125C96.5885 25.125 94.2604 24.6875 92.3125 23.8125C90.375 22.9271 88.9062 21.625 87.9062 19.9062C86.9062 18.1771 86.4062 16.0677 86.4062 13.5781C86.4062 11.6927 86.6927 10.0365 87.2656 8.60938C87.8385 7.17188 88.6771 5.96354 89.7812 4.98438C90.8854 4.00521 92.2396 3.26562 93.8438 2.76562C95.4479 2.25521 97.2656 2 99.2969 2C101.995 2 104.323 2.44792 106.281 3.34375C108.24 4.22917 109.734 5.54167 110.766 7.28125C111.797 9.01042 112.312 11.1094 112.312 13.5781ZM94.4219 13.6406C94.4219 15.0885 94.7448 16.349 95.3906 17.4219C96.0469 18.4948 97.3333 19.0312 99.25 19.0312C100.729 19.0312 101.833 18.75 102.562 18.1875C103.302 17.625 103.76 16.9844 103.938 16.2656C104.125 15.5365 104.25 14.6615 104.312 13.6406C104.25 12.1927 103.901 10.9323 103.266 9.85938C102.63 8.77604 101.292 8.23438 99.25 8.23438C96.0312 8.23438 94.4219 10.0365 94.4219 13.6406Z" fill="#EC944B"/>
<path d="M23.6562 34.1719V40.8906H16.5V56.7344H9.15625V40.8906H2V34.1719H23.6562Z" fill="#EC944B"/>
<path d="M37.375 41.9531V34.1719H44.7188V56.7344H37.375V48.6094H31.4688V56.7344H24.125V34.1719H31.4688V41.9531H37.375Z" fill="#EC944B"/>
<path d="M46.2812 56.7344V34.1719H65.625V40.8906H53.625V43.4844H61.375V47.4219H53.625V50.0156H67.5312V56.7344H46.2812Z" fill="#EC944B"/>
<path d="M67.5312 56.7344V34.1719H82.2188C84.0312 34.3385 85.5208 34.8177 86.6875 35.6094C87.8542 36.401 88.7083 37.4635 89.25 38.7969C89.6667 40.7969 89.6875 42.3385 89.3125 43.4219C88.9375 44.5052 88.2812 45.4115 87.3438 46.1406C86.4062 46.8698 85.0625 47.4427 83.3125 47.8594L85 50.0156H91.75V56.7344H82.8438L75.6875 49.2812V56.7344H67.5312ZM75.6875 39.7969V43.9531H81.375C81.6771 43.9531 82.0052 43.8438 82.3594 43.625C82.7135 43.3958 82.901 42.8281 82.9219 41.9219C82.8698 41.0573 82.6562 40.4896 82.2812 40.2188C81.9167 39.9375 81.6094 39.7969 81.3594 39.7969H75.6875Z" fill="#EC944B"/>
<path d="M91.75 56.7344V34.1719H111.094V40.8906H99.0938V43.4844H106.844V47.4219H99.0938V50.0156H113V56.7344H91.75Z" fill="#EC944B"/>
<path d="M16.0312 9.95312V11.9531H18.0312V9.95312H16.0312ZM16.0312 2.17188V0.171875H14.0312V2.17188H16.0312ZM23.375 2.17188H25.375V0.171875H23.375V2.17188ZM23.375 24.7344V26.7344H25.375V24.7344H23.375ZM16.0312 24.7344H14.0312V26.7344H16.0312V24.7344ZM16.0312 16.6094H18.0312V14.6094H16.0312V16.6094ZM10.125 16.6094V14.6094H8.125V16.6094H10.125ZM10.125 24.7344V26.7344H12.125V24.7344H10.125ZM2.78125 24.7344H0.78125V26.7344H2.78125V24.7344ZM2.78125 2.17188V0.171875H0.78125V2.17188H2.78125ZM10.125 2.17188H12.125V0.171875H10.125V2.17188ZM10.125 9.95312H8.125V11.9531H10.125V9.95312ZM24.9375 24.7344H22.9375V26.7344H24.9375V24.7344ZM24.9375 2.17188V0.171875H22.9375V2.17188H24.9375ZM44.2812 2.17188H46.2812V0.171875H44.2812V2.17188ZM44.2812 8.89062V10.8906H46.2812V8.89062H44.2812ZM32.2812 8.89062V6.89062H30.2812V8.89062H32.2812ZM32.2812 11.4844H30.2812V13.4844H32.2812V11.4844ZM40.0312 11.4844H42.0312V9.48438H40.0312V11.4844ZM40.0312 15.4219V17.4219H42.0312V15.4219H40.0312ZM32.2812 15.4219V13.4219H30.2812V15.4219H32.2812ZM32.2812 18.0156H30.2812V20.0156H32.2812V18.0156ZM46.1875 18.0156H48.1875V16.0156H46.1875V18.0156ZM46.1875 2.17188V0.171875H44.1875V2.17188H46.1875ZM53.5312 2.17188H55.5312V0.171875H53.5312V2.17188ZM53.5312 18.0156H51.5312V20.0156H53.5312V18.0156ZM65.75 18.0156H67.75V16.0156H65.75V18.0156ZM65.75 24.7344V26.7344H67.75V24.7344H65.75ZM66.6875 24.7344H64.6875V26.7344H66.6875V24.7344ZM66.6875 2.17188V0.171875H64.6875V2.17188H66.6875ZM74.0312 2.17188H76.0312V0.171875H74.0312V2.17188ZM74.0312 18.0156H72.0312V20.0156H74.0312V18.0156ZM86.25 18.0156H88.25V16.0156H86.25V18.0156ZM86.25 24.7344V26.7344H88.25V24.7344H86.25ZM106.281 23.8125L105.465 21.9865L105.462 21.9881L106.281 23.8125ZM92.3125 23.8125L91.4812 25.6316L91.493 25.6369L92.3125 23.8125ZM87.9062 19.9062L86.1749 20.9075L86.1776 20.912L87.9062 19.9062ZM87.2656 8.60938L89.1217 9.35449L89.1235 9.34983L87.2656 8.60938ZM93.8438 2.76562L94.4389 4.67506L94.4502 4.67148L93.8438 2.76562ZM106.281 3.34375L105.449 5.16251L105.457 5.16614L106.281 3.34375ZM110.766 7.28125L109.045 8.30114L109.048 8.30567L110.766 7.28125ZM95.3906 17.4219L93.6771 18.4533L93.6808 18.4594L93.6845 18.4654L95.3906 17.4219ZM102.562 18.1875L101.352 16.5956L101.341 16.6039L102.562 18.1875ZM103.938 16.2656L102.001 15.7675L101.998 15.7773L101.996 15.7872L103.938 16.2656ZM104.312 13.6406L106.309 13.7628L106.315 13.6587L106.311 13.5544L104.312 13.6406ZM103.266 9.85938L101.54 10.8712L101.545 10.8785L103.266 9.85938ZM23.6562 34.1719H25.6562V32.1719H23.6562V34.1719ZM23.6562 40.8906V42.8906H25.6562V40.8906H23.6562ZM16.5 40.8906V38.8906H14.5V40.8906H16.5ZM16.5 56.7344V58.7344H18.5V56.7344H16.5ZM9.15625 56.7344H7.15625V58.7344H9.15625V56.7344ZM9.15625 40.8906H11.1562V38.8906H9.15625V40.8906ZM2 40.8906H0V42.8906H2V40.8906ZM2 34.1719V32.1719H0V34.1719H2ZM37.375 41.9531V43.9531H39.375V41.9531H37.375ZM37.375 34.1719V32.1719H35.375V34.1719H37.375ZM44.7188 34.1719H46.7188V32.1719H44.7188V34.1719ZM44.7188 56.7344V58.7344H46.7188V56.7344H44.7188ZM37.375 56.7344H35.375V58.7344H37.375V56.7344ZM37.375 48.6094H39.375V46.6094H37.375V48.6094ZM31.4688 48.6094V46.6094H29.4688V48.6094H31.4688ZM31.4688 56.7344V58.7344H33.4688V56.7344H31.4688ZM24.125 56.7344H22.125V58.7344H24.125V56.7344ZM24.125 34.1719V32.1719H22.125V34.1719H24.125ZM31.4688 34.1719H33.4688V32.1719H31.4688V34.1719ZM31.4688 41.9531H29.4688V43.9531H31.4688V41.9531ZM46.2812 56.7344H44.2812V58.7344H46.2812V56.7344ZM46.2812 34.1719V32.1719H44.2812V34.1719H46.2812ZM65.625 34.1719H67.625V32.1719H65.625V34.1719ZM65.625 40.8906V42.8906H67.625V40.8906H65.625ZM53.625 40.8906V38.8906H51.625V40.8906H53.625ZM53.625 43.4844H51.625V45.4844H53.625V43.4844ZM61.375 43.4844H63.375V41.4844H61.375V43.4844ZM61.375 47.4219V49.4219H63.375V47.4219H61.375ZM53.625 47.4219V45.4219H51.625V47.4219H53.625ZM53.625 50.0156H51.625V52.0156H53.625V50.0156ZM67.5312 50.0156H69.5312V48.0156H67.5312V50.0156ZM67.5312 34.1719V32.1719H65.5312V34.1719H67.5312ZM82.2188 34.1719L82.4019 32.1803L82.3105 32.1719H82.2188V34.1719ZM89.25 38.7969L91.208 38.389L91.1711 38.2118L91.1029 38.0441L89.25 38.7969ZM83.3125 47.8594L82.8493 45.9138L79.8155 46.6361L81.7375 49.092L83.3125 47.8594ZM85 50.0156L83.425 51.2482L84.0256 52.0156H85V50.0156ZM91.75 50.0156H93.75V48.0156H91.75V50.0156ZM82.8438 56.7344L81.4011 58.1196L81.9914 58.7344H82.8438V56.7344ZM75.6875 49.2812L77.1302 47.8961L73.6875 44.3106V49.2812H75.6875ZM75.6875 56.7344V58.7344H77.6875V56.7344H75.6875ZM75.6875 39.7969V37.7969H73.6875V39.7969H75.6875ZM75.6875 43.9531H73.6875V45.9531H75.6875V43.9531ZM82.3594 43.625L83.4104 45.3266L83.4282 45.3156L83.4459 45.3041L82.3594 43.625ZM82.9219 41.9219L84.9213 41.9678L84.9233 41.8847L84.9183 41.8016L82.9219 41.9219ZM82.2812 40.2188L81.0596 41.8023L81.0847 41.8216L81.1103 41.8401L82.2812 40.2188ZM91.75 34.1719V32.1719H89.75V34.1719H91.75ZM111.094 34.1719H113.094V32.1719H111.094V34.1719ZM111.094 40.8906V42.8906H113.094V40.8906H111.094ZM99.0938 40.8906V38.8906H97.0938V40.8906H99.0938ZM99.0938 43.4844H97.0938V45.4844H99.0938V43.4844ZM106.844 43.4844H108.844V41.4844H106.844V43.4844ZM106.844 47.4219V49.4219H108.844V47.4219H106.844ZM99.0938 47.4219V45.4219H97.0938V47.4219H99.0938ZM99.0938 50.0156H97.0938V52.0156H99.0938V50.0156ZM113 50.0156H115V48.0156H113V50.0156ZM113 56.7344V58.7344H115V56.7344H113ZM18.0312 9.95312V2.17188H14.0312V9.95312H18.0312ZM16.0312 4.17188H23.375V0.171875H16.0312V4.17188ZM21.375 2.17188V24.7344H25.375V2.17188H21.375ZM23.375 22.7344H16.0312V26.7344H23.375V22.7344ZM18.0312 24.7344V16.6094H14.0312V24.7344H18.0312ZM16.0312 14.6094H10.125V18.6094H16.0312V14.6094ZM8.125 16.6094V24.7344H12.125V16.6094H8.125ZM10.125 22.7344H2.78125V26.7344H10.125V22.7344ZM4.78125 24.7344V2.17188H0.78125V24.7344H4.78125ZM2.78125 4.17188H10.125V0.171875H2.78125V4.17188ZM8.125 2.17188V9.95312H12.125V2.17188H8.125ZM10.125 11.9531H16.0312V7.95312H10.125V11.9531ZM26.9375 24.7344V2.17188H22.9375V24.7344H26.9375ZM24.9375 4.17188H44.2812V0.171875H24.9375V4.17188ZM42.2812 2.17188V8.89062H46.2812V2.17188H42.2812ZM44.2812 6.89062H32.2812V10.8906H44.2812V6.89062ZM30.2812 8.89062V11.4844H34.2812V8.89062H30.2812ZM32.2812 13.4844H40.0312V9.48438H32.2812V13.4844ZM38.0312 11.4844V15.4219H42.0312V11.4844H38.0312ZM40.0312 13.4219H32.2812V17.4219H40.0312V13.4219ZM30.2812 15.4219V18.0156H34.2812V15.4219H30.2812ZM32.2812 20.0156H46.1875V16.0156H32.2812V20.0156ZM44.1875 18.0156V24.7344H48.1875V18.0156H44.1875ZM46.1875 22.7344H24.9375V26.7344H46.1875V22.7344ZM48.1875 24.7344V2.17188H44.1875V24.7344H48.1875ZM46.1875 4.17188H53.5312V0.171875H46.1875V4.17188ZM51.5312 2.17188V18.0156H55.5312V2.17188H51.5312ZM53.5312 20.0156H65.75V16.0156H53.5312V20.0156ZM63.75 18.0156V24.7344H67.75V18.0156H63.75ZM65.75 22.7344H46.1875V26.7344H65.75V22.7344ZM68.6875 24.7344V2.17188H64.6875V24.7344H68.6875ZM66.6875 4.17188H74.0312V0.171875H66.6875V4.17188ZM72.0312 2.17188V18.0156H76.0312V2.17188H72.0312ZM74.0312 20.0156H86.25V16.0156H74.0312V20.0156ZM84.25 18.0156V24.7344H88.25V18.0156H84.25ZM86.25 22.7344H66.6875V26.7344H86.25V22.7344ZM110.312 13.5781C110.312 15.7671 109.857 17.5015 109.045 18.8707L112.486 20.9105C113.737 18.8006 114.312 16.3267 114.312 13.5781H110.312ZM109.045 18.8707C108.238 20.2324 107.07 21.2694 105.465 21.9865L107.097 25.6385C109.409 24.6056 111.231 23.0281 112.486 20.9105L109.045 18.8707ZM105.462 21.9881C103.831 22.7207 101.796 23.125 99.2969 23.125V27.125C102.215 27.125 104.836 26.6543 107.101 25.6369L105.462 21.9881ZM99.2969 23.125C96.7979 23.125 94.7629 22.7207 93.132 21.9881L91.493 25.6369C93.7579 26.6543 96.3792 27.125 99.2969 27.125V23.125ZM93.1438 21.9934C91.554 21.2669 90.4119 20.2359 89.6349 18.9005L86.1776 20.912C87.4006 23.0141 89.196 24.5872 91.4812 25.6316L93.1438 21.9934ZM89.6376 18.905C88.852 17.5466 88.4062 15.8018 88.4062 13.5781H84.4062C84.4062 16.3336 84.9605 18.8075 86.1749 20.9075L89.6376 18.905ZM88.4062 13.5781C88.4062 11.892 88.6627 10.4977 89.1216 9.35449L85.4096 7.86426C84.7227 9.57519 84.4062 11.4934 84.4062 13.5781H88.4062ZM89.1235 9.34983C89.5866 8.18779 90.249 7.24271 91.1082 6.48075L88.4543 3.488C87.1052 4.68437 86.0904 6.15596 85.4077 7.86892L89.1235 9.34983ZM91.1082 6.48075C91.973 5.71391 93.0677 5.1024 94.4389 4.67503L93.2486 0.856224C91.4114 1.42885 89.7979 2.29651 88.4543 3.488L91.1082 6.48075ZM94.4502 4.67148C95.8226 4.23479 97.4303 4 99.2969 4V0C97.1009 0 95.0732 0.275627 93.2373 0.859773L94.4502 4.67148ZM99.2969 4C101.778 4 103.809 4.41229 105.449 5.16249L107.113 1.52501C104.837 0.483546 102.211 0 99.2969 0V4ZM105.457 5.16614C107.066 5.89363 108.237 6.93746 109.045 8.30114L112.486 6.26136C111.232 4.14588 109.413 2.5647 107.105 1.52136L105.457 5.16614ZM109.048 8.30567C109.857 9.66195 110.312 11.3887 110.312 13.5781H114.312C114.312 10.83 113.737 8.35888 112.483 6.25683L109.048 8.30567ZM92.4219 13.6406C92.4219 15.3943 92.8162 17.023 93.6771 18.4533L97.1041 16.3904C96.6734 15.6749 96.4219 14.7828 96.4219 13.6406H92.4219ZM93.6845 18.4654C94.8694 20.4028 97.0268 21.0312 99.25 21.0312V17.0312C97.6399 17.0312 97.2243 16.5868 97.0968 16.3783L93.6845 18.4654ZM99.25 21.0312C100.923 21.0312 102.549 20.7238 103.784 19.7711L101.341 16.6039C101.118 16.7762 100.536 17.0312 99.25 17.0312V21.0312ZM103.773 19.7794C104.782 19.0124 105.568 18.0101 105.879 16.7441L101.996 15.7872C101.953 15.9587 101.823 16.2376 101.352 16.5956L103.773 19.7794ZM105.874 16.7637C106.103 15.8766 106.241 14.8688 106.309 13.7628L102.316 13.5184C102.259 14.4541 102.147 15.1963 102.001 15.7675L105.874 16.7637ZM106.311 13.5544C106.236 11.831 105.815 10.2394 104.986 8.84023L101.545 10.8785C101.987 11.6252 102.264 12.5544 102.314 13.7269L106.311 13.5544ZM104.991 8.84751C103.811 6.83612 101.536 6.23438 99.25 6.23438V10.2344C101.047 10.2344 101.449 10.716 101.54 10.8712L104.991 8.84751ZM99.25 6.23438C97.2701 6.23438 95.4364 6.799 94.1372 8.25373C92.8765 9.6654 92.4219 11.5825 92.4219 13.6406H96.4219C96.4219 12.0946 96.772 11.3086 97.1206 10.9181C97.4308 10.5708 98.0111 10.2344 99.25 10.2344V6.23438ZM21.6562 34.1719V40.8906H25.6562V34.1719H21.6562ZM23.6562 38.8906H16.5V42.8906H23.6562V38.8906ZM14.5 40.8906V56.7344H18.5V40.8906H14.5ZM16.5 54.7344H9.15625V58.7344H16.5V54.7344ZM11.1562 56.7344V40.8906H7.15625V56.7344H11.1562ZM9.15625 38.8906H2V42.8906H9.15625V38.8906ZM4 40.8906V34.1719H0V40.8906H4ZM2 36.1719H23.6562V32.1719H2V36.1719ZM39.375 41.9531V34.1719H35.375V41.9531H39.375ZM37.375 36.1719H44.7188V32.1719H37.375V36.1719ZM42.7188 34.1719V56.7344H46.7188V34.1719H42.7188ZM44.7188 54.7344H37.375V58.7344H44.7188V54.7344ZM39.375 56.7344V48.6094H35.375V56.7344H39.375ZM37.375 46.6094H31.4688V50.6094H37.375V46.6094ZM29.4688 48.6094V56.7344H33.4688V48.6094H29.4688ZM31.4688 54.7344H24.125V58.7344H31.4688V54.7344ZM26.125 56.7344V34.1719H22.125V56.7344H26.125ZM24.125 36.1719H31.4688V32.1719H24.125V36.1719ZM29.4688 34.1719V41.9531H33.4688V34.1719H29.4688ZM31.4688 43.9531H37.375V39.9531H31.4688V43.9531ZM48.2812 56.7344V34.1719H44.2812V56.7344H48.2812ZM46.2812 36.1719H65.625V32.1719H46.2812V36.1719ZM63.625 34.1719V40.8906H67.625V34.1719H63.625ZM65.625 38.8906H53.625V42.8906H65.625V38.8906ZM51.625 40.8906V43.4844H55.625V40.8906H51.625ZM53.625 45.4844H61.375V41.4844H53.625V45.4844ZM59.375 43.4844V47.4219H63.375V43.4844H59.375ZM61.375 45.4219H53.625V49.4219H61.375V45.4219ZM51.625 47.4219V50.0156H55.625V47.4219H51.625ZM53.625 52.0156H67.5312V48.0156H53.625V52.0156ZM65.5312 50.0156V56.7344H69.5312V50.0156H65.5312ZM67.5312 54.7344H46.2812V58.7344H67.5312V54.7344ZM69.5312 56.7344V34.1719H65.5312V56.7344H69.5312ZM67.5312 36.1719H82.2188V32.1719H67.5312V36.1719ZM82.0356 36.1635C83.6068 36.308 84.7474 36.7099 85.5645 37.2643L87.8105 33.9544C86.2942 32.9255 84.4557 32.3691 82.4019 32.1803L82.0356 36.1635ZM85.5645 37.2643C86.3969 37.8292 87.0009 38.5745 87.3971 39.5496L91.1029 38.0441C90.4157 36.3526 89.3114 34.9729 87.8105 33.9544L85.5645 37.2643ZM87.292 39.2048C87.6848 41.09 87.6192 42.1996 87.4225 42.7677L91.2025 44.0761C91.7558 42.4775 91.6485 40.5037 91.208 38.389L87.292 39.2048ZM87.4225 42.7677C87.1789 43.4716 86.7595 44.0613 86.1159 44.5619L88.5716 47.7193C89.803 46.7616 90.6961 45.5388 91.2025 44.0761L87.4225 42.7677ZM86.1159 44.5619C85.4899 45.0488 84.4509 45.5324 82.8493 45.9138L83.7757 49.805C85.6741 49.353 87.3226 48.6908 88.5716 47.7193L86.1159 44.5619ZM81.7375 49.092L83.425 51.2482L86.575 48.783L84.8875 46.6268L81.7375 49.092ZM85 52.0156H91.75V48.0156H85V52.0156ZM89.75 50.0156V56.7344H93.75V50.0156H89.75ZM91.75 54.7344H82.8438V58.7344H91.75V54.7344ZM84.2864 55.3492L77.1302 47.8961L74.2448 50.6664L81.4011 58.1196L84.2864 55.3492ZM73.6875 49.2812V56.7344H77.6875V49.2812H73.6875ZM75.6875 54.7344H67.5312V58.7344H75.6875V54.7344ZM73.6875 39.7969V43.9531H77.6875V39.7969H73.6875ZM75.6875 45.9531H81.375V41.9531H75.6875V45.9531ZM81.375 45.9531C82.1634 45.9531 82.8551 45.6695 83.4104 45.3266L81.3084 41.9234C81.2371 41.9674 81.2066 41.9766 81.2152 41.9737C81.226 41.9701 81.2825 41.9531 81.375 41.9531V45.9531ZM83.4459 45.3041C84.1375 44.8566 84.4864 44.1944 84.6647 43.6546C84.8437 43.1127 84.9085 42.5278 84.9213 41.9678L80.9224 41.8759C80.9186 42.0404 80.9077 42.166 80.8947 42.2582C80.8815 42.3518 80.8683 42.3948 80.8665 42.4001C80.8573 42.428 80.9354 42.1642 81.2729 41.9459L83.4459 45.3041ZM84.9183 41.8016C84.8592 40.8213 84.6029 39.4284 83.4522 38.5974L81.1103 41.8401C80.8936 41.6836 80.8399 41.5231 80.8507 41.5518C80.8554 41.5643 80.8702 41.6083 80.8861 41.6938C80.9018 41.7786 80.9165 41.8932 80.9255 42.0421L84.9183 41.8016ZM83.5029 38.6352C83.0455 38.2824 82.2926 37.7969 81.3594 37.7969V41.7969C81.1149 41.7969 80.9657 41.7304 80.9451 41.721C80.9209 41.7099 80.9576 41.7236 81.0596 41.8023L83.5029 38.6352ZM81.3594 37.7969H75.6875V41.7969H81.3594V37.7969ZM93.75 56.7344V34.1719H89.75V56.7344H93.75ZM91.75 36.1719H111.094V32.1719H91.75V36.1719ZM109.094 34.1719V40.8906H113.094V34.1719H109.094ZM111.094 38.8906H99.0938V42.8906H111.094V38.8906ZM97.0938 40.8906V43.4844H101.094V40.8906H97.0938ZM99.0938 45.4844H106.844V41.4844H99.0938V45.4844ZM104.844 43.4844V47.4219H108.844V43.4844H104.844ZM106.844 45.4219H99.0938V49.4219H106.844V45.4219ZM97.0938 47.4219V50.0156H101.094V47.4219H97.0938ZM99.0938 52.0156H113V48.0156H99.0938V52.0156ZM111 50.0156V56.7344H115V50.0156H111ZM113 54.7344H91.75V58.7344H113V54.7344Z" fill="#2A5A97" mask="url(#path-1-outside-1_16_113)"/>
</svg>