<svg width="157" height="160" viewBox="0 0 157 160" fill="none" xmlns="http://www.w3.org/2000/svg">
<path fill-rule="evenodd" clip-rule="evenodd" d="M43.8575 145.508C45.47 145.334 47.09 145.23 48.7175 145.2C49.1525 145.191 49.595 145.187 50.0225 145.187C51.7925 145.191 53.5551 145.253 55.3101 145.37C57.1776 145.489 59.0375 145.647 60.89 145.844C62.78 146.041 64.6776 146.256 66.5601 146.496C68.4201 146.733 70.2725 146.974 72.1325 147.224C74.9075 147.609 77.6899 147.96 80.4724 148.275C81.6874 148.411 82.9025 148.525 84.125 148.613C85.1825 148.696 86.24 148.735 87.305 148.744C88.1 148.749 88.8874 148.709 89.6749 148.621C90.3649 148.555 91.0401 148.407 91.6926 148.179C93.2301 147.618 94.775 147.105 96.3425 146.637C98.5025 145.975 100.685 145.389 102.883 144.867C105.358 144.271 107.863 143.79 110.383 143.417C111.643 143.233 112.91 143.088 114.178 142.979C115.4 142.878 116.622 142.826 117.852 142.821C118.872 142.817 119.9 142.865 120.92 142.961C121.85 143.049 122.772 143.198 123.68 143.409C125.397 143.816 127.108 144.298 128.788 144.849C129.013 144.923 129.23 144.997 129.455 145.073C117.575 154.364 102.612 159.904 86.375 159.904C70.3925 159.904 55.6475 154.536 43.8575 145.508ZM17.6974 103.617C17.9449 103.702 18.1999 103.787 18.4474 103.87C20.7124 104.615 23.0224 105.232 25.3549 105.714C27.5674 106.17 29.8101 106.502 32.0601 106.704C34.2576 106.896 36.4624 106.962 38.6599 106.901C39.4924 106.871 40.325 106.765 41.1425 106.59C41.99 106.41 42.8225 106.183 43.6475 105.907C44.5175 105.622 45.3725 105.315 46.22 104.982C47.105 104.632 47.99 104.277 48.875 103.914C50.075 103.419 51.2826 102.941 52.4901 102.477C53.7351 102.004 54.9951 101.574 56.2701 101.193C57.5601 100.808 58.8726 100.505 60.2001 100.277C61.5501 100.05 62.915 99.9318 64.2875 99.9273C66.71 99.9318 69.11 100.334 71.405 101.123C74.465 102.179 77.525 103.252 80.5775 104.343C82.385 104.996 84.2 105.626 86.015 106.235C87.3575 106.686 88.73 107.076 90.11 107.409C91.6175 107.751 93.1325 108.04 94.6625 108.272C96.95 108.623 99.2375 108.96 101.54 109.275C102.102 109.354 102.665 109.433 103.227 109.516C107.667 110.139 112.145 110.445 116.623 110.436C120.2 110.441 123.77 110.248 127.333 109.862C130.97 109.472 134.585 108.868 138.148 108.049C141.74 107.229 145.265 106.161 148.7 104.851C150.98 103.987 153.207 102.997 155.375 101.886C152.57 118.119 144.163 132.445 132.215 142.797C131.398 142.498 130.573 142.213 129.748 141.941C127.978 141.358 126.192 140.85 124.377 140.425C123.335 140.184 122.277 140.013 121.212 139.913C120.095 139.803 118.962 139.751 117.837 139.755C116.532 139.759 115.227 139.817 113.922 139.925C112.587 140.036 111.26 140.189 109.932 140.381C107.33 140.767 104.735 141.271 102.178 141.884C99.9126 142.419 97.6776 143.023 95.4576 143.697C93.8451 144.184 92.2475 144.714 90.665 145.292C90.245 145.437 89.8025 145.529 89.36 145.572C88.685 145.647 88.0025 145.682 87.32 145.677C86.33 145.669 85.34 145.629 84.35 145.555C83.1725 145.467 81.9951 145.362 80.8176 145.23C78.0576 144.915 75.2975 144.57 72.5375 144.188C70.6775 143.938 68.8176 143.693 66.9501 143.456C65.0376 143.211 63.125 142.992 61.2125 142.79C59.315 142.594 57.4176 142.431 55.5126 142.309C53.6901 142.19 51.86 142.125 50.03 142.12C49.5725 142.12 49.115 142.125 48.6575 142.138C46.1975 142.182 43.7449 142.383 41.3149 142.743C41.0749 142.778 40.835 142.815 40.595 142.854C29.0525 132.866 20.7949 119.167 17.6974 103.617ZM37.8651 71.2615C38.2101 71.2165 38.555 71.173 38.9 71.1295C40.685 70.9068 42.4701 70.7268 44.2626 70.5955C45.9951 70.4635 47.7425 70.3938 49.4825 70.3893C51.1025 70.3855 52.7225 70.4598 54.335 70.6218C55.85 70.7658 57.35 71.02 58.835 71.3748C60.1325 71.695 61.43 72.019 62.7275 72.352C65.255 73.0045 67.7901 73.6308 70.3326 74.2398C73.2651 74.9365 76.2049 75.5628 79.1674 76.1238C82.3399 76.7283 85.5424 77.2098 88.7524 77.5735C92.0374 77.95 95.3376 78.1473 98.6451 78.1563C101.255 78.1645 103.858 78.016 106.445 77.7003C108.988 77.398 111.493 76.8903 113.945 76.1763C120.035 74.38 126.058 72.361 131.998 70.1223C138.335 67.7343 144.605 65.1445 150.785 62.3575C154.4 70.8055 156.403 80.1078 156.403 89.875C156.403 92.662 156.245 95.4108 155.922 98.1168C153.252 99.6063 150.47 100.899 147.612 101.986C144.305 103.243 140.915 104.273 137.465 105.061C134.015 105.854 130.52 106.437 127.002 106.813C123.552 107.186 120.088 107.374 116.615 107.37C112.28 107.379 107.945 107.081 103.655 106.476L101.96 106.239C99.68 105.924 97.3999 105.591 95.1199 105.241C93.6799 105.022 92.2399 104.746 90.8074 104.421C89.5174 104.111 88.2426 103.747 86.9901 103.326C85.1901 102.726 83.3974 102.1 81.6124 101.456C78.5449 100.361 75.4776 99.2875 72.4026 98.2233C69.7926 97.321 67.04 96.8605 64.28 96.8605C62.7425 96.865 61.2049 96.997 59.6899 97.255C58.2424 97.5002 56.8025 97.8377 55.3925 98.2585C54.05 98.6567 52.7076 99.1128 51.3951 99.6123C50.1651 100.085 48.9275 100.575 47.705 101.079C46.8425 101.438 45.9725 101.785 45.1025 102.126C44.3075 102.442 43.4975 102.731 42.6875 102.998C41.9675 103.235 41.2401 103.432 40.4976 103.594C39.8601 103.73 39.2075 103.813 38.5625 103.835C36.4775 103.896 34.4075 103.835 32.33 103.646C30.2 103.458 28.0775 103.142 25.9775 102.709C23.7575 102.254 21.5675 101.667 19.4075 100.957C18.635 100.701 17.8624 100.433 17.0974 100.15C16.6024 96.796 16.3474 93.3648 16.3474 89.875C16.3474 86.5188 16.58 83.2165 17.0375 79.9878C18.455 80.3163 19.9176 80.4858 21.3951 80.4858C26.5101 80.4858 31.43 78.4503 35.045 74.8315C36.1325 73.7478 37.0701 72.5485 37.8651 71.2615ZM32.375 45.3033C32.6225 45.0018 32.8775 44.7033 33.1325 44.407C33.635 44.761 34.1676 45.0798 34.7151 45.3595C35.6301 45.8193 36.5749 46.2138 37.5424 46.5378C38.9149 46.993 40.3325 47.3388 41.7575 47.5713C43.7375 47.8908 45.7325 48.1015 47.735 48.202C48.53 48.2418 49.3324 48.259 50.1274 48.259C52.0999 48.259 54.08 48.1315 56.0375 47.8735C57.605 47.6545 59.18 47.392 60.7325 47.0808C61.7825 46.8708 62.84 46.6863 63.8975 46.5243C64.865 46.3795 65.8399 46.3053 66.8224 46.297C67.9774 46.297 69.125 46.4238 70.2425 46.6735C71.6525 47.002 73.025 47.4708 74.345 48.0663C75.4325 48.5523 76.5424 48.9948 77.6674 49.402C78.9199 49.858 80.18 50.2825 81.455 50.6725C84.2975 51.5358 87.1699 52.276 90.0724 52.885C93.1624 53.542 96.2749 54.0588 99.4099 54.4308C102.477 54.808 105.567 55.0053 108.665 55.018C110.51 55.0225 112.355 54.9348 114.185 54.742C115.865 54.5718 117.53 54.2733 119.165 53.8443C120.582 53.467 122.007 53.0905 123.425 52.7185C125.66 52.1493 127.888 51.5485 130.1 50.9178C131.068 50.6425 132.027 50.3485 132.98 50.0373C133.85 49.7575 134.705 49.4508 135.553 49.1178C136.318 48.8155 137.068 48.478 137.803 48.106C138.47 47.764 139.115 47.374 139.73 46.9405C140.15 46.6443 140.54 46.3158 140.907 45.9595C144.267 50.1273 147.162 54.6888 149.51 59.563C143.397 62.3238 137.195 64.891 130.917 67.2528C125.045 69.4653 119.098 71.458 113.09 73.2325C110.795 73.8985 108.455 74.3755 106.085 74.656C103.618 74.9538 101.135 75.0985 98.6526 75.0895C95.4576 75.0805 92.2699 74.8923 89.0974 74.5293C85.9624 74.1745 82.8349 73.7013 79.7374 73.1095C76.8274 72.5583 73.925 71.9403 71.045 71.257C68.5175 70.6518 66.005 70.03 63.485 69.382C62.18 69.049 60.8675 68.7205 59.5625 68.3965C57.9425 68.0065 56.2924 67.7305 54.6349 67.5685C52.9174 67.3975 51.1925 67.3188 49.475 67.3233C47.6525 67.3278 45.8375 67.3975 44.03 67.5378C42.5075 67.6503 40.985 67.7958 39.47 67.972C40.2725 65.821 40.7001 63.5238 40.7001 61.183C40.7001 56.065 38.6675 51.1488 35.045 47.53C34.22 46.7035 33.3275 45.9595 32.375 45.3033ZM28.775 50.0545C29.51 50.5428 30.2075 51.106 30.8375 51.7398C33.3425 54.244 34.7524 57.64 34.7524 61.183C34.7524 64.7223 33.3425 68.1228 30.8375 70.6263C28.3325 73.126 24.9426 74.5345 21.3951 74.5345C20.2851 74.5345 19.19 74.3958 18.125 74.1273C20.1425 65.362 23.81 57.223 28.775 50.0545ZM116.443 26.6215C125.053 30.7233 132.688 36.5313 138.928 43.6083C138.628 43.9158 138.305 44.191 137.953 44.4393C137.465 44.785 136.947 45.0963 136.407 45.3723C135.762 45.7008 135.103 45.9985 134.428 46.261C133.64 46.5723 132.845 46.8618 132.035 47.1198C131.12 47.422 130.197 47.7025 129.26 47.9703C127.07 48.592 124.865 49.183 122.66 49.753C121.227 50.125 119.81 50.5015 118.385 50.8833C116.9 51.2688 115.392 51.5403 113.87 51.6933C112.145 51.8733 110.412 51.9565 108.68 51.952C105.702 51.9385 102.725 51.7503 99.7776 51.3865C96.7326 51.0228 93.7025 50.5233 90.71 49.8843C87.89 49.2925 85.1074 48.5785 82.3549 47.7378C81.1249 47.3658 79.9175 46.9578 78.71 46.5198C77.66 46.1388 76.6174 45.7225 75.5974 45.2718C74.0974 44.5878 72.5299 44.0583 70.9249 43.6863C69.5749 43.3833 68.2024 43.2303 66.8149 43.2303C65.6824 43.2393 64.5574 43.3263 63.4399 43.4928C62.3374 43.6593 61.2275 43.852 60.1325 44.071C58.64 44.3688 57.1325 44.623 55.625 44.8338C53.8025 45.0745 51.9649 45.193 50.1274 45.193C49.3774 45.193 48.6349 45.175 47.8849 45.136C46.0024 45.0438 44.1199 44.8465 42.2524 44.5443C40.9774 44.338 39.7249 44.032 38.5024 43.6248C37.6849 43.3533 36.8825 43.0158 36.1025 42.6258C35.795 42.4645 35.4875 42.2898 35.195 42.1C40.5575 36.355 46.88 31.513 53.8925 27.8283C56.195 28.375 58.55 28.6518 60.9125 28.6518C62.0075 28.6518 63.0949 28.5948 64.1824 28.4808C67.3849 28.1395 70.6025 27.8455 73.82 27.5958C75.53 27.4645 77.2401 27.364 78.9576 27.2853C80.6526 27.2103 82.3474 27.1713 84.0424 27.1668C85.3399 27.1668 86.6376 27.1975 87.9276 27.259C89.1501 27.3115 90.3649 27.412 91.5724 27.5478C92.6749 27.6708 93.77 27.8455 94.8575 28.069C95.8175 28.2663 96.7626 28.5243 97.6851 28.8445C98.2326 29.0328 98.8026 29.1685 99.3801 29.2435C99.9726 29.3223 100.572 29.3613 101.172 29.3568C101.945 29.353 102.725 29.3088 103.505 29.2173C104.315 29.1205 105.133 28.9983 105.943 28.849C106.783 28.696 107.622 28.5295 108.455 28.345C109.302 28.1568 110.15 27.964 110.998 27.7668C111.943 27.5523 112.88 27.3378 113.825 27.1315C114.695 26.9455 115.565 26.7715 116.443 26.6215ZM58.775 25.5018C67.25 21.862 76.58 19.846 86.375 19.846C95.2325 19.846 103.715 21.4953 111.523 24.5035C111.118 24.5943 110.712 24.6865 110.307 24.7795C109.467 24.9768 108.635 25.165 107.795 25.3488C106.993 25.5243 106.19 25.6863 105.388 25.8355C104.645 25.9713 103.895 26.0853 103.145 26.1723C102.485 26.2465 101.817 26.2908 101.157 26.2908C100.692 26.2953 100.242 26.2645 99.7849 26.203C99.4099 26.155 99.0424 26.0673 98.6824 25.9443C97.6399 25.5813 96.5674 25.2873 95.4724 25.0645C94.3024 24.823 93.1099 24.6348 91.9099 24.499C90.6349 24.3543 89.36 24.2538 88.0775 24.1923C86.7275 24.1315 85.3849 24.1008 84.0349 24.1008C82.2949 24.1045 80.5549 24.1443 78.8149 24.223C77.0674 24.3018 75.3275 24.4068 73.5875 24.5388C70.34 24.7885 67.1 25.0863 63.8525 25.432C62.8775 25.5333 61.895 25.5858 60.9125 25.5858C60.2 25.5858 59.4875 25.5573 58.775 25.5018Z"/>
<path fill-rule="evenodd" clip-rule="evenodd" d="M43.8575 145.508C45.47 145.334 47.09 145.23 48.7175 145.2C49.1525 145.191 49.595 145.187 50.0225 145.187C51.7925 145.191 53.5551 145.253 55.3101 145.37C57.1776 145.489 59.0375 145.647 60.89 145.844C62.78 146.041 64.6776 146.256 66.5601 146.496C68.4201 146.733 70.2725 146.974 72.1325 147.224C74.9075 147.609 77.6899 147.96 80.4724 148.275C81.6874 148.411 82.9025 148.525 84.125 148.613C85.1825 148.696 86.24 148.735 87.305 148.744C88.1 148.749 88.8874 148.709 89.6749 148.621C90.3649 148.555 91.0401 148.407 91.6926 148.179C93.2301 147.618 94.775 147.105 96.3425 146.637C98.5025 145.975 100.685 145.389 102.883 144.867C105.358 144.271 107.863 143.79 110.383 143.417C111.643 143.233 112.91 143.088 114.178 142.979C115.4 142.878 116.622 142.826 117.852 142.821C118.872 142.817 119.9 142.865 120.92 142.961C121.85 143.049 122.772 143.198 123.68 143.409C125.397 143.816 127.108 144.298 128.788 144.849C129.013 144.923 129.23 144.997 129.455 145.073C117.575 154.364 102.612 159.904 86.375 159.904C70.3925 159.904 55.6475 154.536 43.8575 145.508ZM17.6974 103.617C17.9449 103.702 18.1999 103.787 18.4474 103.87C20.7124 104.615 23.0224 105.232 25.3549 105.714C27.5674 106.17 29.8101 106.502 32.0601 106.704C34.2576 106.896 36.4624 106.962 38.6599 106.901C39.4924 106.871 40.325 106.765 41.1425 106.59C41.99 106.41 42.8225 106.183 43.6475 105.907C44.5175 105.622 45.3725 105.315 46.22 104.982C47.105 104.632 47.99 104.277 48.875 103.914C50.075 103.419 51.2826 102.941 52.4901 102.477C53.7351 102.004 54.9951 101.574 56.2701 101.193C57.5601 100.808 58.8726 100.505 60.2001 100.277C61.5501 100.05 62.915 99.9318 64.2875 99.9273C66.71 99.9318 69.11 100.334 71.405 101.123C74.465 102.179 77.525 103.252 80.5775 104.343C82.385 104.996 84.2 105.626 86.015 106.235C87.3575 106.686 88.73 107.076 90.11 107.409C91.6175 107.751 93.1325 108.04 94.6625 108.272C96.95 108.623 99.2375 108.96 101.54 109.275C102.102 109.354 102.665 109.433 103.227 109.516C107.667 110.139 112.145 110.445 116.623 110.436C120.2 110.441 123.77 110.248 127.333 109.862C130.97 109.472 134.585 108.868 138.148 108.049C141.74 107.229 145.265 106.161 148.7 104.851C150.98 103.987 153.207 102.997 155.375 101.886C152.57 118.119 144.163 132.445 132.215 142.797C131.398 142.498 130.573 142.213 129.748 141.941C127.978 141.358 126.192 140.85 124.377 140.425C123.335 140.184 122.277 140.013 121.212 139.913C120.095 139.803 118.962 139.751 117.837 139.755C116.532 139.759 115.227 139.817 113.922 139.925C112.587 140.036 111.26 140.189 109.932 140.381C107.33 140.767 104.735 141.271 102.178 141.884C99.9126 142.419 97.6776 143.023 95.4576 143.697C93.8451 144.184 92.2475 144.714 90.665 145.292C90.245 145.437 89.8025 145.529 89.36 145.572C88.685 145.647 88.0025 145.682 87.32 145.677C86.33 145.669 85.34 145.629 84.35 145.555C83.1725 145.467 81.9951 145.362 80.8176 145.23C78.0576 144.915 75.2975 144.57 72.5375 144.188C70.6775 143.938 68.8176 143.693 66.9501 143.456C65.0376 143.211 63.125 142.992 61.2125 142.79C59.315 142.594 57.4176 142.431 55.5126 142.309C53.6901 142.19 51.86 142.125 50.03 142.12C49.5725 142.12 49.115 142.125 48.6575 142.138C46.1975 142.182 43.7449 142.383 41.3149 142.743C41.0749 142.778 40.835 142.815 40.595 142.854C29.0525 132.866 20.7949 119.167 17.6974 103.617ZM37.8651 71.2615C38.2101 71.2165 38.555 71.173 38.9 71.1295C40.685 70.9068 42.4701 70.7268 44.2626 70.5955C45.9951 70.4635 47.7425 70.3938 49.4825 70.3893C51.1025 70.3855 52.7225 70.4598 54.335 70.6218C55.85 70.7658 57.35 71.02 58.835 71.3748C60.1325 71.695 61.43 72.019 62.7275 72.352C65.255 73.0045 67.7901 73.6308 70.3326 74.2398C73.2651 74.9365 76.2049 75.5628 79.1674 76.1238C82.3399 76.7283 85.5424 77.2098 88.7524 77.5735C92.0374 77.95 95.3376 78.1473 98.6451 78.1563C101.255 78.1645 103.858 78.016 106.445 77.7003C108.988 77.398 111.493 76.8903 113.945 76.1763C120.035 74.38 126.058 72.361 131.998 70.1223C138.335 67.7343 144.605 65.1445 150.785 62.3575C154.4 70.8055 156.403 80.1078 156.403 89.875C156.403 92.662 156.245 95.4108 155.922 98.1168C153.252 99.6063 150.47 100.899 147.612 101.986C144.305 103.243 140.915 104.273 137.465 105.061C134.015 105.854 130.52 106.437 127.002 106.813C123.552 107.186 120.088 107.374 116.615 107.37C112.28 107.379 107.945 107.081 103.655 106.476L101.96 106.239C99.68 105.924 97.3999 105.591 95.1199 105.241C93.6799 105.022 92.2399 104.746 90.8074 104.421C89.5174 104.111 88.2426 103.747 86.9901 103.326C85.1901 102.726 83.3974 102.1 81.6124 101.456C78.5449 100.361 75.4776 99.2875 72.4026 98.2233C69.7926 97.321 67.04 96.8605 64.28 96.8605C62.7425 96.865 61.2049 96.997 59.6899 97.255C58.2424 97.5002 56.8025 97.8377 55.3925 98.2585C54.05 98.6567 52.7076 99.1128 51.3951 99.6123C50.1651 100.085 48.9275 100.575 47.705 101.079C46.8425 101.438 45.9725 101.785 45.1025 102.126C44.3075 102.442 43.4975 102.731 42.6875 102.998C41.9675 103.235 41.2401 103.432 40.4976 103.594C39.8601 103.73 39.2075 103.813 38.5625 103.835C36.4775 103.896 34.4075 103.835 32.33 103.646C30.2 103.458 28.0775 103.142 25.9775 102.709C23.7575 102.254 21.5675 101.667 19.4075 100.957C18.635 100.701 17.8624 100.433 17.0974 100.15C16.6024 96.796 16.3474 93.3648 16.3474 89.875C16.3474 86.5188 16.58 83.2165 17.0375 79.9878C18.455 80.3163 19.9176 80.4858 21.3951 80.4858C26.5101 80.4858 31.43 78.4503 35.045 74.8315C36.1325 73.7478 37.0701 72.5485 37.8651 71.2615ZM32.375 45.3033C32.6225 45.0018 32.8775 44.7033 33.1325 44.407C33.635 44.761 34.1676 45.0798 34.7151 45.3595C35.6301 45.8193 36.5749 46.2138 37.5424 46.5378C38.9149 46.993 40.3325 47.3388 41.7575 47.5713C43.7375 47.8908 45.7325 48.1015 47.735 48.202C48.53 48.2418 49.3324 48.259 50.1274 48.259C52.0999 48.259 54.08 48.1315 56.0375 47.8735C57.605 47.6545 59.18 47.392 60.7325 47.0808C61.7825 46.8708 62.84 46.6863 63.8975 46.5243C64.865 46.3795 65.8399 46.3053 66.8224 46.297C67.9774 46.297 69.125 46.4238 70.2425 46.6735C71.6525 47.002 73.025 47.4708 74.345 48.0663C75.4325 48.5523 76.5424 48.9948 77.6674 49.402C78.9199 49.858 80.18 50.2825 81.455 50.6725C84.2975 51.5358 87.1699 52.276 90.0724 52.885C93.1624 53.542 96.2749 54.0588 99.4099 54.4308C102.477 54.808 105.567 55.0053 108.665 55.018C110.51 55.0225 112.355 54.9348 114.185 54.742C115.865 54.5718 117.53 54.2733 119.165 53.8443C120.582 53.467 122.007 53.0905 123.425 52.7185C125.66 52.1493 127.888 51.5485 130.1 50.9178C131.068 50.6425 132.027 50.3485 132.98 50.0373C133.85 49.7575 134.705 49.4508 135.553 49.1178C136.318 48.8155 137.068 48.478 137.803 48.106C138.47 47.764 139.115 47.374 139.73 46.9405C140.15 46.6443 140.54 46.3158 140.907 45.9595C144.267 50.1273 147.162 54.6888 149.51 59.563C143.397 62.3238 137.195 64.891 130.917 67.2528C125.045 69.4653 119.098 71.458 113.09 73.2325C110.795 73.8985 108.455 74.3755 106.085 74.656C103.618 74.9538 101.135 75.0985 98.6526 75.0895C95.4576 75.0805 92.2699 74.8923 89.0974 74.5293C85.9624 74.1745 82.8349 73.7013 79.7374 73.1095C76.8274 72.5583 73.925 71.9403 71.045 71.257C68.5175 70.6518 66.005 70.03 63.485 69.382C62.18 69.049 60.8675 68.7205 59.5625 68.3965C57.9425 68.0065 56.2924 67.7305 54.6349 67.5685C52.9174 67.3975 51.1925 67.3188 49.475 67.3233C47.6525 67.3278 45.8375 67.3975 44.03 67.5378C42.5075 67.6503 40.985 67.7958 39.47 67.972C40.2725 65.821 40.7001 63.5238 40.7001 61.183C40.7001 56.065 38.6675 51.1488 35.045 47.53C34.22 46.7035 33.3275 45.9595 32.375 45.3033ZM28.775 50.0545C29.51 50.5428 30.2075 51.106 30.8375 51.7398C33.3425 54.244 34.7524 57.64 34.7524 61.183C34.7524 64.7223 33.3425 68.1228 30.8375 70.6263C28.3325 73.126 24.9426 74.5345 21.3951 74.5345C20.2851 74.5345 19.19 74.3958 18.125 74.1273C20.1425 65.362 23.81 57.223 28.775 50.0545ZM116.443 26.6215C125.053 30.7233 132.688 36.5313 138.928 43.6083C138.628 43.9158 138.305 44.191 137.953 44.4393C137.465 44.785 136.947 45.0963 136.407 45.3723C135.762 45.7008 135.103 45.9985 134.428 46.261C133.64 46.5723 132.845 46.8618 132.035 47.1198C131.12 47.422 130.197 47.7025 129.26 47.9703C127.07 48.592 124.865 49.183 122.66 49.753C121.227 50.125 119.81 50.5015 118.385 50.8833C116.9 51.2688 115.392 51.5403 113.87 51.6933C112.145 51.8733 110.412 51.9565 108.68 51.952C105.702 51.9385 102.725 51.7503 99.7776 51.3865C96.7326 51.0228 93.7025 50.5233 90.71 49.8843C87.89 49.2925 85.1074 48.5785 82.3549 47.7378C81.1249 47.3658 79.9175 46.9578 78.71 46.5198C77.66 46.1388 76.6174 45.7225 75.5974 45.2718C74.0974 44.5878 72.5299 44.0583 70.9249 43.6863C69.5749 43.3833 68.2024 43.2303 66.8149 43.2303C65.6824 43.2393 64.5574 43.3263 63.4399 43.4928C62.3374 43.6593 61.2275 43.852 60.1325 44.071C58.64 44.3688 57.1325 44.623 55.625 44.8338C53.8025 45.0745 51.9649 45.193 50.1274 45.193C49.3774 45.193 48.6349 45.175 47.8849 45.136C46.0024 45.0438 44.1199 44.8465 42.2524 44.5443C40.9774 44.338 39.7249 44.032 38.5024 43.6248C37.6849 43.3533 36.8825 43.0158 36.1025 42.6258C35.795 42.4645 35.4875 42.2898 35.195 42.1C40.5575 36.355 46.88 31.513 53.8925 27.8283C56.195 28.375 58.55 28.6518 60.9125 28.6518C62.0075 28.6518 63.0949 28.5948 64.1824 28.4808C67.3849 28.1395 70.6025 27.8455 73.82 27.5958C75.53 27.4645 77.2401 27.364 78.9576 27.2853C80.6526 27.2103 82.3474 27.1713 84.0424 27.1668C85.3399 27.1668 86.6376 27.1975 87.9276 27.259C89.1501 27.3115 90.3649 27.412 91.5724 27.5478C92.6749 27.6708 93.77 27.8455 94.8575 28.069C95.8175 28.2663 96.7626 28.5243 97.6851 28.8445C98.2326 29.0328 98.8026 29.1685 99.3801 29.2435C99.9726 29.3223 100.572 29.3613 101.172 29.3568C101.945 29.353 102.725 29.3088 103.505 29.2173C104.315 29.1205 105.133 28.9983 105.943 28.849C106.783 28.696 107.622 28.5295 108.455 28.345C109.302 28.1568 110.15 27.964 110.998 27.7668C111.943 27.5523 112.88 27.3378 113.825 27.1315C114.695 26.9455 115.565 26.7715 116.443 26.6215ZM58.775 25.5018C67.25 21.862 76.58 19.846 86.375 19.846C95.2325 19.846 103.715 21.4953 111.523 24.5035C111.118 24.5943 110.712 24.6865 110.307 24.7795C109.467 24.9768 108.635 25.165 107.795 25.3488C106.993 25.5243 106.19 25.6863 105.388 25.8355C104.645 25.9713 103.895 26.0853 103.145 26.1723C102.485 26.2465 101.817 26.2908 101.157 26.2908C100.692 26.2953 100.242 26.2645 99.7849 26.203C99.4099 26.155 99.0424 26.0673 98.6824 25.9443C97.6399 25.5813 96.5674 25.2873 95.4724 25.0645C94.3024 24.823 93.1099 24.6348 91.9099 24.499C90.6349 24.3543 89.36 24.2538 88.0775 24.1923C86.7275 24.1315 85.3849 24.1008 84.0349 24.1008C82.2949 24.1045 80.5549 24.1443 78.8149 24.223C77.0674 24.3018 75.3275 24.4068 73.5875 24.5388C70.34 24.7885 67.1 25.0863 63.8525 25.432C62.8775 25.5333 61.895 25.5858 60.9125 25.5858C60.2 25.5858 59.4875 25.5573 58.775 25.5018Z" stroke="#F49446" stroke-width="6" mask="url(#path-1-inside-1_17_126)"/>
<path fill-rule="evenodd" clip-rule="evenodd" d="M19.25 17.1559C19.25 13.0742 20.8777 9.15385 23.7658 6.26576C26.6538 3.37489 30.5743 1.75 34.6588 1.75C38.7433 1.75 42.6636 3.37489 45.5517 6.26576C48.4426 9.15385 50.0646 13.0742 50.0646 17.1559C50.0646 21.2432 48.4426 25.1635 45.5517 28.0516C42.6636 30.9397 38.7433 32.5618 34.6588 32.5618C30.5743 32.5618 26.6538 30.9397 23.7658 28.0516C20.8777 25.1635 19.25 21.2432 19.25 17.1559ZM25.2015 17.1559C25.2015 14.649 26.2031 12.2451 27.9727 10.4699C29.7451 8.70035 32.1491 7.70147 34.6588 7.70147C37.1657 7.70147 39.5697 8.70035 41.342 10.4699C43.1172 12.2451 44.1132 14.649 44.1132 17.1559C44.1132 19.6628 43.1172 22.0668 41.342 23.8419C39.5697 25.6143 37.1657 26.6104 34.6588 26.6104C32.1491 26.6104 29.7451 25.6143 27.9727 23.8419C26.2031 22.0668 25.2015 19.6628 25.2015 17.1559Z" stroke="#F49446" stroke-width="3"/>
<path fill-rule="evenodd" clip-rule="evenodd" d="M17.0375 79.9877C13.55 79.1785 10.3174 77.4055 7.74493 74.8315C4.12993 71.2135 2.09009 66.301 2.09009 61.183C2.09009 56.065 4.12993 51.1487 7.74493 47.53C11.3674 43.912 16.2801 41.8765 21.3951 41.8765C25.3401 41.8765 29.1725 43.0877 32.375 45.3025C31.115 46.8332 29.9075 48.4187 28.775 50.0537C26.6075 48.6137 24.0426 47.8277 21.3951 47.8277C17.8551 47.8277 14.4575 49.2362 11.96 51.7397C9.45502 54.244 8.04504 57.64 8.04504 61.183C8.04504 64.7222 9.45502 68.1227 11.96 70.6262C13.67 72.3415 15.8075 73.5422 18.125 74.1272C17.6825 76.0517 17.3225 78.0062 17.0375 79.9877Z" stroke="#F49446" stroke-width="3"/>
</svg>
