<svg width="53" height="54" viewBox="0 0 53 54" fill="none" xmlns="http://www.w3.org/2000/svg">
<path fill-rule="evenodd" clip-rule="evenodd" d="M14.2174 48.9375C14.7633 48.8786 15.3117 48.8435 15.8627 48.8334C16.01 48.8303 16.1598 48.8288 16.3045 48.8288C16.9037 48.8303 17.5004 48.8512 18.0945 48.891C18.7268 48.9311 19.3564 48.9845 19.9836 49.0512C20.6234 49.118 21.2658 49.1906 21.9031 49.2721C22.5328 49.3524 23.1599 49.4339 23.7896 49.5184C24.7291 49.6489 25.671 49.7675 26.613 49.8744C27.0244 49.9204 27.4357 49.959 27.8496 49.9887C28.2076 50.0168 28.5656 50.03 28.9261 50.0331C29.1953 50.0346 29.4619 50.0212 29.7285 49.9915C29.9621 49.9691 30.1906 49.9188 30.4115 49.8417C30.932 49.652 31.4551 49.4783 31.9857 49.3199C32.717 49.0957 33.4558 48.8971 34.1998 48.7207C35.0377 48.5188 35.8857 48.3558 36.7388 48.2296C37.1654 48.1674 37.5945 48.1184 38.0236 48.0813C38.4375 48.0473 38.8513 48.0295 39.2677 48.028C39.6131 48.0265 39.9609 48.043 40.3062 48.0755C40.6211 48.1052 40.9334 48.1555 41.2406 48.2268C41.822 48.3647 42.401 48.5279 42.9697 48.7146C43.0459 48.7394 43.1195 48.7646 43.1957 48.7902C39.1738 51.9356 34.1084 53.8112 28.6113 53.8112C23.2006 53.8112 18.2088 51.994 14.2174 48.9375ZM5.3611 34.7556C5.44489 34.7845 5.53121 34.8132 5.615 34.8414C6.3818 35.0935 7.16382 35.3025 7.95347 35.4657C8.70249 35.6199 9.46172 35.7326 10.2234 35.8009C10.9674 35.8659 11.7138 35.8882 12.4578 35.8677C12.7396 35.8573 13.0215 35.8215 13.2982 35.7623C13.5851 35.7014 13.867 35.6244 14.1463 35.531C14.4408 35.4345 14.7302 35.3307 15.0172 35.2179C15.3168 35.0993 15.6164 34.9792 15.916 34.8561C16.3222 34.6885 16.7311 34.5268 17.1398 34.3696C17.5613 34.2097 17.9879 34.0642 18.4195 33.9352C18.8563 33.8047 19.3006 33.7023 19.75 33.6252C20.207 33.5482 20.6691 33.5081 21.1338 33.5066C21.9539 33.5081 22.7664 33.6445 23.5433 33.9113C24.5793 34.2688 25.6152 34.6322 26.6486 35.0016C27.2605 35.2225 27.875 35.436 28.4894 35.6422C28.9439 35.7948 29.4086 35.9268 29.8758 36.0396C30.3861 36.1553 30.899 36.2531 31.417 36.3318C32.1914 36.4504 32.9658 36.5646 33.7453 36.6713C33.9357 36.6979 34.1261 36.7246 34.3166 36.7528C35.8197 36.9635 37.3355 37.0674 38.8514 37.0643C40.0625 37.0658 41.2711 37.0006 42.4772 36.8701C43.7086 36.7381 44.9324 36.5334 46.1385 36.2561C47.3547 35.9786 48.5481 35.6171 49.7109 35.1735C50.4828 34.881 51.2369 34.5458 51.9707 34.1698C51.0211 39.6651 48.1748 44.5152 44.1301 48.0199C43.8533 47.9186 43.574 47.8221 43.2947 47.7299C42.6955 47.5326 42.0912 47.3607 41.4767 47.2168C41.1238 47.1353 40.7658 47.0774 40.4052 47.0433C40.0269 47.0063 39.6435 46.9885 39.2627 46.99C38.8209 46.9913 38.3791 47.0108 37.9373 47.0477C37.4853 47.085 37.0359 47.1368 36.5865 47.202C35.7054 47.3325 34.827 47.5032 33.9611 47.7106C33.1943 47.8916 32.4377 48.0963 31.6861 48.3246C31.1402 48.4893 30.5994 48.6686 30.0636 48.8644C29.9215 48.9134 29.7717 48.9446 29.6219 48.9593C29.3933 48.9845 29.1623 48.9964 28.9312 48.9949C28.5961 48.9921 28.2609 48.9786 27.9258 48.9535C27.5271 48.9238 27.1285 48.8882 26.7299 48.8435C25.7955 48.7369 24.8611 48.6199 23.9268 48.4906C23.2971 48.4061 22.6674 48.3233 22.0352 48.2431C21.3877 48.16 20.7402 48.0859 20.0927 48.0176C19.4504 47.9511 18.808 47.896 18.1631 47.8546C17.5461 47.8145 16.9266 47.7924 16.307 47.7906C16.1521 47.7906 15.9972 47.7924 15.8424 47.7967C15.0095 47.8114 14.1793 47.8797 13.3566 48.0013C13.2754 48.0133 13.1941 48.0257 13.1129 48.0389C9.20524 44.6576 6.40973 40.02 5.3611 34.7556ZM12.1887 23.802C12.3055 23.7868 12.4222 23.7721 12.539 23.7574C13.1433 23.6819 13.7477 23.621 14.3545 23.5766C14.941 23.5319 15.5326 23.5083 16.1217 23.5067C16.6701 23.5055 17.2185 23.5306 17.7644 23.5855C18.2773 23.6342 18.7851 23.7203 19.2879 23.8404C19.7271 23.9488 20.1664 24.0585 20.6056 24.1712C21.4613 24.3921 22.3195 24.6041 23.1803 24.8103C24.1731 25.0462 25.1683 25.2582 26.1712 25.4481C27.2453 25.6528 28.3295 25.8158 29.4162 25.9389C30.5283 26.0664 31.6455 26.1332 32.7652 26.1362C33.6488 26.139 34.5299 26.0887 35.4058 25.9818C36.2666 25.8795 37.1146 25.7076 37.9449 25.4659C40.0066 24.8578 42.0455 24.1743 44.0564 23.4164C46.202 22.6079 48.3246 21.7312 50.4167 20.7877C51.6406 23.6477 52.3186 26.7969 52.3186 30.1035C52.3186 31.047 52.2652 31.9776 52.156 32.8937C51.2521 33.3979 50.3101 33.8357 49.3427 34.2036C48.223 34.6291 47.0754 34.9777 45.9074 35.2446C44.7395 35.513 43.5562 35.7102 42.3654 35.8377C41.1974 35.9639 40.0244 36.0276 38.8488 36.0261C37.3812 36.0291 35.9137 35.9283 34.4613 35.7237L33.8875 35.6435C33.1156 35.5368 32.3437 35.4241 31.5718 35.3055C31.0843 35.2314 30.5968 35.1379 30.1119 35.028C29.6752 34.9229 29.2436 34.7997 28.8195 34.6573C28.2102 34.4542 27.6033 34.2422 26.999 34.024C25.9605 33.6533 24.9221 33.29 23.8811 32.9297C22.9975 32.6243 22.0656 32.4684 21.1312 32.4684C20.6107 32.4699 20.0902 32.5146 19.5773 32.6019C19.0873 32.6849 18.5998 32.7992 18.1224 32.9416C17.6679 33.0765 17.2135 33.2308 16.7691 33.3999C16.3527 33.5599 15.9338 33.726 15.5199 33.8966C15.2279 34.0182 14.9334 34.1355 14.6388 34.251C14.3697 34.3579 14.0955 34.4557 13.8213 34.5461C13.5775 34.6263 13.3313 34.6931 13.0799 34.7479C12.8641 34.7939 12.6431 34.8221 12.4248 34.8294C11.7189 34.8503 11.0181 34.8294 10.3148 34.7657C9.59372 34.702 8.87517 34.5951 8.16423 34.4483C7.41267 34.2942 6.67126 34.0954 5.94001 33.8552C5.67849 33.7686 5.41694 33.6777 5.15796 33.582C4.99038 32.4465 4.90405 31.2849 4.90405 30.1035C4.90405 28.9673 4.98281 27.8493 5.13769 26.7562C5.61757 26.8674 6.1127 26.9248 6.6129 26.9248C8.34454 26.9248 10.0102 26.2357 11.234 25.0106C11.6021 24.6437 11.9195 24.2377 12.1887 23.802ZM10.3301 15.0141C10.4138 14.912 10.5002 14.811 10.5865 14.7107C10.7566 14.8305 10.9369 14.9384 11.1223 15.0331C11.432 15.1888 11.7519 15.3223 12.0794 15.432C12.5441 15.5861 13.024 15.7032 13.5064 15.7819C14.1767 15.8901 14.8521 15.9614 15.5301 15.9954C15.7992 16.0089 16.0709 16.0147 16.34 16.0147C17.0078 16.0147 17.6781 15.9716 18.3408 15.8842C18.8715 15.8101 19.4047 15.7212 19.9303 15.6158C20.2857 15.5448 20.6437 15.4823 21.0017 15.4275C21.3293 15.3784 21.6593 15.3533 21.992 15.3505C22.383 15.3505 22.7715 15.3934 23.1498 15.478C23.6271 15.5892 24.0918 15.7479 24.5386 15.9495C24.9068 16.114 25.2826 16.2638 25.6634 16.4017C26.0875 16.5561 26.514 16.6998 26.9457 16.8318C27.908 17.1241 28.8804 17.3747 29.863 17.5808C30.9091 17.8033 31.9628 17.9782 33.0242 18.1041C34.0626 18.2318 35.1088 18.2986 36.1574 18.3029C36.782 18.3045 37.4066 18.2748 38.0262 18.2095C38.5949 18.1519 39.1586 18.0508 39.7121 17.9056C40.192 17.7779 40.6744 17.6504 41.1543 17.5245C41.9109 17.3317 42.665 17.1284 43.4141 16.9148C43.7416 16.8216 44.0666 16.7221 44.389 16.6167C44.6835 16.522 44.973 16.4182 45.26 16.3055C45.5189 16.2031 45.7728 16.0889 46.0217 15.9629C46.2477 15.8472 46.466 15.7151 46.6742 15.5684C46.8164 15.4681 46.9484 15.3569 47.0728 15.2363C48.2103 16.6472 49.1904 18.1915 49.9851 19.8416C47.9158 20.7762 45.816 21.6454 43.6908 22.4449C41.7027 23.1939 39.6893 23.8686 37.6555 24.4693C36.8785 24.6948 36.0863 24.8563 35.284 24.9512C34.4486 25.052 33.6082 25.101 32.7678 25.098C31.6861 25.0949 30.607 25.0312 29.533 24.9083C28.4716 24.7882 27.4128 24.628 26.3642 24.4277C25.3791 24.241 24.3965 24.0318 23.4215 23.8005C22.5658 23.5956 21.7152 23.3851 20.8621 23.1658C20.4203 23.053 19.976 22.9418 19.5342 22.8321C18.9857 22.7001 18.4271 22.6066 17.866 22.5518C17.2845 22.4939 16.7006 22.4673 16.1191 22.4688C15.5021 22.4703 14.8877 22.4939 14.2758 22.5414C13.7603 22.5795 13.2449 22.6287 12.732 22.6884C13.0037 21.9602 13.1484 21.1825 13.1484 20.39C13.1484 18.6574 12.4603 16.993 11.234 15.7679C10.9547 15.4881 10.6525 15.2363 10.3301 15.0141ZM9.1113 16.6226C9.36012 16.7879 9.59626 16.9786 9.80954 17.1931C10.6576 18.0409 11.1349 19.1906 11.1349 20.39C11.1349 21.5882 10.6576 22.7394 9.80954 23.587C8.96149 24.4333 7.81388 24.9101 6.6129 24.9101C6.23712 24.9101 5.86639 24.8631 5.50584 24.7722C6.18885 21.8048 7.43044 19.0494 9.1113 16.6226ZM38.7904 8.68954C41.7053 10.0782 44.29 12.0444 46.4025 14.4403C46.301 14.5444 46.1918 14.6375 46.0724 14.7216C45.9074 14.8386 45.7322 14.944 45.5494 15.0375C45.331 15.1487 45.1076 15.2495 44.8791 15.3383C44.6125 15.4437 44.3433 15.5417 44.0691 15.6291C43.7593 15.7314 43.447 15.8263 43.1296 15.917C42.3882 16.1275 41.6417 16.3275 40.8953 16.5205C40.4103 16.6465 39.9304 16.7739 39.448 16.9032C38.9453 17.0337 38.4349 17.1256 37.9195 17.1774C37.3355 17.2383 36.749 17.2665 36.1625 17.265C35.1545 17.2604 34.1465 17.1967 33.1486 17.0735C32.1178 16.9504 31.092 16.7813 30.0789 16.565C29.1242 16.3646 28.1822 16.1229 27.2503 15.8383C26.8339 15.7123 26.4252 15.5742 26.0164 15.4259C25.6609 15.2969 25.308 15.156 24.9626 15.0034C24.4548 14.7719 23.9242 14.5926 23.3808 14.4667C22.9238 14.3641 22.4591 14.3123 21.9894 14.3123C21.606 14.3153 21.2252 14.3448 20.8468 14.4012C20.4736 14.4575 20.0978 14.5228 19.7271 14.5969C19.2219 14.6977 18.7115 14.7838 18.2012 14.8551C17.5842 14.9366 16.9621 14.9768 16.34 14.9768C16.0861 14.9768 15.8347 14.9707 15.5808 14.9575C14.9435 14.9262 14.3062 14.8595 13.674 14.7571C13.2423 14.6873 12.8183 14.5837 12.4045 14.4458C12.1277 14.3539 11.856 14.2397 11.592 14.1076C11.4879 14.0531 11.3838 13.9939 11.2847 13.9297C13.1002 11.9847 15.2406 10.3455 17.6146 9.09808C18.3941 9.28317 19.1914 9.37687 19.9912 9.37687C20.3619 9.37687 20.73 9.35757 21.0982 9.31897C22.1824 9.20345 23.2717 9.10392 24.3609 9.01937C24.9398 8.97493 25.5188 8.94091 26.1002 8.91425C26.674 8.88886 27.2478 8.87565 27.8216 8.87413C28.2609 8.87413 28.7002 8.88454 29.1369 8.90536C29.5508 8.92314 29.9621 8.95716 30.3709 9.00312C30.7441 9.04476 31.1148 9.10392 31.483 9.17958C31.808 9.24636 32.1279 9.3337 32.4402 9.44212C32.6256 9.50585 32.8186 9.55181 33.0141 9.5772C33.2147 9.60386 33.4177 9.61706 33.6209 9.61554C33.8824 9.61427 34.1465 9.59929 34.4105 9.56831C34.6848 9.53556 34.9615 9.49417 35.2357 9.44364C35.5201 9.39185 35.8045 9.33548 36.0863 9.27302C36.3732 9.20929 36.6602 9.14403 36.9471 9.07726C37.267 9.00464 37.5844 8.93202 37.9043 8.8622C38.1988 8.79923 38.4934 8.74032 38.7904 8.68954ZM19.2675 8.31046C22.1367 7.07825 25.2953 6.39575 28.6113 6.39575C31.6099 6.39575 34.4816 6.95409 37.1248 7.97251C36.9877 8.00323 36.8505 8.03446 36.7134 8.06595C36.4291 8.13273 36.1473 8.19646 35.8629 8.25866C35.5912 8.31808 35.3195 8.37292 35.0479 8.42345C34.7965 8.4694 34.5426 8.508 34.2887 8.53745C34.0652 8.56259 33.8392 8.57757 33.6158 8.57757C33.4584 8.57909 33.306 8.56868 33.1511 8.54786C33.0242 8.53161 32.8998 8.5019 32.7779 8.46026C32.425 8.33737 32.0619 8.23784 31.6912 8.16243C31.2951 8.08067 30.8914 8.01694 30.4851 7.97099C30.0535 7.92198 29.6219 7.88796 29.1877 7.86714C28.7306 7.84657 28.2761 7.83616 27.8191 7.83616C27.23 7.83743 26.641 7.85089 26.0519 7.87755C25.4603 7.90421 24.8713 7.93976 24.2822 7.98444C23.1828 8.06899 22.0859 8.1698 20.9865 8.28685C20.6564 8.32112 20.3238 8.3389 19.9912 8.3389C19.75 8.3389 19.5088 8.32925 19.2675 8.31046Z" fill="white"/>
<path fill-rule="evenodd" clip-rule="evenodd" d="M5.88672 5.48507C5.88672 4.10324 6.43775 2.77604 7.41549 1.7983C8.39323 0.819625 9.72047 0.269531 11.1032 0.269531C12.486 0.269531 13.8132 0.819625 14.7909 1.7983C15.7696 2.77604 16.3187 4.10324 16.3187 5.48507C16.3187 6.86879 15.7696 8.19599 14.7909 9.17373C13.8132 10.1515 12.486 10.7006 11.1032 10.7006C9.72047 10.7006 8.39323 10.1515 7.41549 9.17373C6.43775 8.19599 5.88672 6.86879 5.88672 5.48507ZM7.90155 5.48507C7.90155 4.63638 8.24065 3.82255 8.83972 3.22159C9.43974 2.62252 10.2536 2.28435 11.1032 2.28435C11.9519 2.28435 12.7658 2.62252 13.3658 3.22159C13.9668 3.82255 14.304 4.63638 14.304 5.48507C14.304 6.33377 13.9668 7.14761 13.3658 7.74857C12.7658 8.34859 11.9519 8.68581 11.1032 8.68581C10.2536 8.68581 9.43974 8.34859 8.83972 7.74857C8.24065 7.14761 7.90155 6.33377 7.90155 5.48507Z" fill="white"/>
<path fill-rule="evenodd" clip-rule="evenodd" d="M5.13773 26.7563C3.95706 26.4823 2.86269 25.8821 1.99179 25.0106C0.767965 23.7858 0.0773926 22.1227 0.0773926 20.3901C0.0773926 18.6574 0.767965 16.993 1.99179 15.7679C3.21816 14.5431 4.8813 13.854 6.61294 13.854C7.94848 13.854 9.24592 14.2641 10.3301 15.0138C9.90353 15.5321 9.49473 16.0688 9.11133 16.6223C8.37755 16.1348 7.50923 15.8687 6.61294 15.8687C5.4145 15.8687 4.26428 16.3456 3.41878 17.1931C2.57073 18.0409 2.09339 19.1906 2.09339 20.3901C2.09339 21.5882 2.57073 22.7395 3.41878 23.587C3.99768 24.1677 4.72131 24.5742 5.50588 24.7722C5.35607 25.4237 5.23421 26.0854 5.13773 26.7563Z" fill="white"/>
</svg>
