<svg width="65" height="65" viewBox="0 0 65 65" fill="none" xmlns="http://www.w3.org/2000/svg">
<path fill-rule="evenodd" clip-rule="evenodd" d="M17.2174 49.9375C17.7633 49.8786 18.3117 49.8435 18.8627 49.8334C19.01 49.8303 19.1598 49.8288 19.3045 49.8288C19.9037 49.8303 20.5004 49.8512 21.0945 49.891C21.7268 49.9311 22.3564 49.9845 22.9836 50.0512C23.6234 50.118 24.2658 50.1906 24.9031 50.2721C25.5328 50.3524 26.1599 50.4339 26.7896 50.5184C27.7291 50.6489 28.671 50.7675 29.613 50.8744C30.0244 50.9204 30.4357 50.959 30.8496 50.9887C31.2076 51.0168 31.5656 51.03 31.9261 51.0331C32.1953 51.0346 32.4619 51.0212 32.7285 50.9915C32.9621 50.9691 33.1906 50.9188 33.4115 50.8417C33.932 50.652 34.4551 50.4783 34.9857 50.3199C35.717 50.0957 36.4558 49.8971 37.1998 49.7207C38.0377 49.5188 38.8857 49.3558 39.7388 49.2296C40.1654 49.1674 40.5945 49.1184 41.0236 49.0813C41.4375 49.0473 41.8513 49.0295 42.2677 49.028C42.6131 49.0265 42.9609 49.043 43.3062 49.0755C43.6211 49.1052 43.9334 49.1555 44.2406 49.2268C44.822 49.3647 45.401 49.5279 45.9697 49.7146C46.0459 49.7394 46.1195 49.7646 46.1957 49.7902C42.1738 52.9356 37.1084 54.8112 31.6113 54.8112C26.2006 54.8112 21.2088 52.994 17.2174 49.9375ZM8.3611 35.7556C8.44489 35.7845 8.53121 35.8132 8.615 35.8414C9.3818 36.0935 10.1638 36.3025 10.9535 36.4657C11.7025 36.6199 12.4617 36.7326 13.2234 36.8009C13.9674 36.8659 14.7138 36.8882 15.4578 36.8677C15.7396 36.8573 16.0215 36.8215 16.2982 36.7623C16.5851 36.7014 16.867 36.6244 17.1463 36.531C17.4408 36.4345 17.7302 36.3307 18.0172 36.2179C18.3168 36.0993 18.6164 35.9792 18.916 35.8561C19.3222 35.6885 19.7311 35.5268 20.1398 35.3696C20.5613 35.2097 20.9879 35.0642 21.4195 34.9352C21.8563 34.8047 22.3006 34.7023 22.75 34.6252C23.207 34.5482 23.6691 34.5081 24.1338 34.5066C24.9539 34.5081 25.7664 34.6445 26.5433 34.9113C27.5793 35.2688 28.6152 35.6322 29.6486 36.0016C30.2605 36.2225 30.875 36.436 31.4894 36.6422C31.9439 36.7948 32.4086 36.9268 32.8758 37.0396C33.3861 37.1553 33.899 37.2531 34.417 37.3318C35.1914 37.4504 35.9658 37.5646 36.7453 37.6713C36.9357 37.6979 37.1261 37.7246 37.3166 37.7528C38.8197 37.9635 40.3355 38.0674 41.8514 38.0643C43.0625 38.0658 44.2711 38.0006 45.4772 37.8701C46.7086 37.7381 47.9324 37.5334 49.1385 37.2561C50.3547 36.9786 51.5481 36.6171 52.7109 36.1735C53.4828 35.881 54.2369 35.5458 54.9707 35.1698C54.0211 40.6651 51.1748 45.5152 47.1301 49.0199C46.8533 48.9186 46.574 48.8221 46.2947 48.7299C45.6955 48.5326 45.0912 48.3607 44.4767 48.2168C44.1238 48.1353 43.7658 48.0774 43.4052 48.0433C43.0269 48.0063 42.6435 47.9885 42.2627 47.99C41.8209 47.9913 41.3791 48.0108 40.9373 48.0477C40.4853 48.085 40.0359 48.1368 39.5865 48.202C38.7054 48.3325 37.827 48.5032 36.9611 48.7106C36.1943 48.8916 35.4377 49.0963 34.6861 49.3246C34.1402 49.4893 33.5994 49.6686 33.0636 49.8644C32.9215 49.9134 32.7717 49.9446 32.6219 49.9593C32.3933 49.9845 32.1623 49.9964 31.9312 49.9949C31.5961 49.9921 31.2609 49.9786 30.9258 49.9535C30.5271 49.9238 30.1285 49.8882 29.7299 49.8435C28.7955 49.7369 27.8611 49.6199 26.9268 49.4906C26.2971 49.4061 25.6674 49.3233 25.0352 49.2431C24.3877 49.16 23.7402 49.0859 23.0927 49.0176C22.4504 48.9511 21.808 48.896 21.1631 48.8546C20.5461 48.8145 19.9266 48.7924 19.307 48.7906C19.1521 48.7906 18.9972 48.7924 18.8424 48.7967C18.0095 48.8114 17.1793 48.8797 16.3566 49.0013C16.2754 49.0133 16.1941 49.0257 16.1129 49.0389C12.2052 45.6576 9.40973 41.02 8.3611 35.7556ZM15.1887 24.802C15.3055 24.7868 15.4222 24.7721 15.539 24.7574C16.1433 24.6819 16.7477 24.621 17.3545 24.5766C17.941 24.5319 18.5326 24.5083 19.1217 24.5067C19.6701 24.5055 20.2185 24.5306 20.7644 24.5855C21.2773 24.6342 21.7851 24.7203 22.2879 24.8404C22.7271 24.9488 23.1664 25.0585 23.6056 25.1712C24.4613 25.3921 25.3195 25.6041 26.1803 25.8103C27.1731 26.0462 28.1683 26.2582 29.1712 26.4481C30.2453 26.6528 31.3295 26.8158 32.4162 26.9389C33.5283 27.0664 34.6455 27.1332 35.7652 27.1362C36.6488 27.139 37.5299 27.0887 38.4058 26.9818C39.2666 26.8795 40.1146 26.7076 40.9449 26.4659C43.0066 25.8578 45.0455 25.1743 47.0564 24.4164C49.202 23.6079 51.3246 22.7312 53.4167 21.7877C54.6406 24.6477 55.3186 27.7969 55.3186 31.1035C55.3186 32.047 55.2652 32.9776 55.156 33.8937C54.2521 34.3979 53.3101 34.8357 52.3427 35.2036C51.223 35.6291 50.0754 35.9777 48.9074 36.2446C47.7395 36.513 46.5562 36.7102 45.3654 36.8377C44.1974 36.9639 43.0244 37.0276 41.8488 37.0261C40.3812 37.0291 38.9137 36.9283 37.4613 36.7237L36.8875 36.6435C36.1156 36.5368 35.3437 36.4241 34.5718 36.3055C34.0843 36.2314 33.5968 36.1379 33.1119 36.028C32.6752 35.9229 32.2436 35.7997 31.8195 35.6573C31.2102 35.4542 30.6033 35.2422 29.999 35.024C28.9605 34.6533 27.9221 34.29 26.8811 33.9297C25.9975 33.6243 25.0656 33.4684 24.1312 33.4684C23.6107 33.4699 23.0902 33.5146 22.5773 33.6019C22.0873 33.6849 21.5998 33.7992 21.1224 33.9416C20.6679 34.0765 20.2135 34.2308 19.7691 34.3999C19.3527 34.5599 18.9338 34.726 18.5199 34.8966C18.2279 35.0182 17.9334 35.1355 17.6388 35.251C17.3697 35.3579 17.0955 35.4557 16.8213 35.5461C16.5775 35.6263 16.3313 35.6931 16.0799 35.7479C15.8641 35.7939 15.6431 35.8221 15.4248 35.8294C14.7189 35.8503 14.0181 35.8294 13.3148 35.7657C12.5937 35.702 11.8752 35.5951 11.1642 35.4483C10.4127 35.2942 9.67126 35.0954 8.94001 34.8552C8.67849 34.7686 8.41694 34.6777 8.15796 34.582C7.99038 33.4465 7.90405 32.2849 7.90405 31.1035C7.90405 29.9673 7.98281 28.8493 8.13769 27.7562C8.61757 27.8674 9.1127 27.9248 9.6129 27.9248C11.3445 27.9248 13.0102 27.2357 14.234 26.0106C14.6021 25.6437 14.9195 25.2377 15.1887 24.802ZM13.3301 16.0141C13.4138 15.912 13.5002 15.811 13.5865 15.7107C13.7566 15.8305 13.9369 15.9384 14.1223 16.0331C14.432 16.1888 14.7519 16.3223 15.0794 16.432C15.5441 16.5861 16.024 16.7032 16.5064 16.7819C17.1767 16.8901 17.8521 16.9614 18.5301 16.9954C18.7992 17.0089 19.0709 17.0147 19.34 17.0147C20.0078 17.0147 20.6781 16.9716 21.3408 16.8842C21.8715 16.8101 22.4047 16.7212 22.9303 16.6158C23.2857 16.5448 23.6437 16.4823 24.0017 16.4275C24.3293 16.3784 24.6593 16.3533 24.992 16.3505C25.383 16.3505 25.7715 16.3934 26.1498 16.478C26.6271 16.5892 27.0918 16.7479 27.5386 16.9495C27.9068 17.114 28.2826 17.2638 28.6634 17.4017C29.0875 17.5561 29.514 17.6998 29.9457 17.8318C30.908 18.1241 31.8804 18.3747 32.863 18.5808C33.9091 18.8033 34.9628 18.9782 36.0242 19.1041C37.0626 19.2318 38.1088 19.2986 39.1574 19.3029C39.782 19.3045 40.4066 19.2748 41.0262 19.2095C41.5949 19.1519 42.1586 19.0508 42.7121 18.9056C43.192 18.7779 43.6744 18.6504 44.1543 18.5245C44.9109 18.3317 45.665 18.1284 46.4141 17.9148C46.7416 17.8216 47.0666 17.7221 47.389 17.6167C47.6835 17.522 47.973 17.4182 48.26 17.3055C48.5189 17.2031 48.7728 17.0889 49.0217 16.9629C49.2477 16.8472 49.466 16.7151 49.6742 16.5684C49.8164 16.4681 49.9484 16.3569 50.0728 16.2363C51.2103 17.6472 52.1904 19.1915 52.9851 20.8416C50.9158 21.7762 48.816 22.6454 46.6908 23.4449C44.7027 24.1939 42.6893 24.8686 40.6555 25.4693C39.8785 25.6948 39.0863 25.8563 38.284 25.9512C37.4486 26.052 36.6082 26.101 35.7678 26.098C34.6861 26.0949 33.607 26.0312 32.533 25.9083C31.4716 25.7882 30.4128 25.628 29.3642 25.4277C28.3791 25.241 27.3965 25.0318 26.4215 24.8005C25.5658 24.5956 24.7152 24.3851 23.8621 24.1658C23.4203 24.053 22.976 23.9418 22.5342 23.8321C21.9857 23.7001 21.4271 23.6066 20.866 23.5518C20.2845 23.4939 19.7006 23.4673 19.1191 23.4688C18.5021 23.4703 17.8877 23.4939 17.2758 23.5414C16.7603 23.5795 16.2449 23.6287 15.732 23.6884C16.0037 22.9602 16.1484 22.1825 16.1484 21.39C16.1484 19.6574 15.4603 17.993 14.234 16.7679C13.9547 16.4881 13.6525 16.2363 13.3301 16.0141ZM12.1113 17.6226C12.3601 17.7879 12.5963 17.9786 12.8095 18.1931C13.6576 19.0409 14.1349 20.1906 14.1349 21.39C14.1349 22.5882 13.6576 23.7394 12.8095 24.587C11.9615 25.4333 10.8139 25.9101 9.6129 25.9101C9.23712 25.9101 8.86639 25.8631 8.50584 25.7722C9.18885 22.8048 10.4304 20.0494 12.1113 17.6226ZM41.7904 9.68954C44.7053 11.0782 47.29 13.0444 49.4025 15.4403C49.301 15.5444 49.1918 15.6375 49.0724 15.7216C48.9074 15.8386 48.7322 15.944 48.5494 16.0375C48.331 16.1487 48.1076 16.2495 47.8791 16.3383C47.6125 16.4437 47.3433 16.5417 47.0691 16.6291C46.7593 16.7314 46.447 16.8263 46.1296 16.917C45.3882 17.1275 44.6417 17.3275 43.8953 17.5205C43.4103 17.6465 42.9304 17.7739 42.448 17.9032C41.9453 18.0337 41.4349 18.1256 40.9195 18.1774C40.3355 18.2383 39.749 18.2665 39.1625 18.265C38.1545 18.2604 37.1465 18.1967 36.1486 18.0735C35.1178 17.9504 34.092 17.7813 33.0789 17.565C32.1242 17.3646 31.1822 17.1229 30.2503 16.8383C29.8339 16.7123 29.4252 16.5742 29.0164 16.4259C28.6609 16.2969 28.308 16.156 27.9626 16.0034C27.4548 15.7719 26.9242 15.5926 26.3808 15.4667C25.9238 15.3641 25.4591 15.3123 24.9894 15.3123C24.606 15.3153 24.2252 15.3448 23.8468 15.4012C23.4736 15.4575 23.0978 15.5228 22.7271 15.5969C22.2219 15.6977 21.7115 15.7838 21.2012 15.8551C20.5842 15.9366 19.9621 15.9768 19.34 15.9768C19.0861 15.9768 18.8347 15.9707 18.5808 15.9575C17.9435 15.9262 17.3062 15.8595 16.674 15.7571C16.2423 15.6873 15.8183 15.5837 15.4045 15.4458C15.1277 15.3539 14.856 15.2397 14.592 15.1076C14.4879 15.0531 14.3838 14.9939 14.2847 14.9297C16.1002 12.9847 18.2406 11.3455 20.6146 10.0981C21.3941 10.2832 22.1914 10.3769 22.9912 10.3769C23.3619 10.3769 23.73 10.3576 24.0982 10.319C25.1824 10.2034 26.2717 10.1039 27.3609 10.0194C27.9398 9.97493 28.5188 9.94091 29.1002 9.91425C29.674 9.88886 30.2478 9.87565 30.8216 9.87413C31.2609 9.87413 31.7002 9.88454 32.1369 9.90536C32.5508 9.92314 32.9621 9.95716 33.3709 10.0031C33.7441 10.0448 34.1148 10.1039 34.483 10.1796C34.808 10.2464 35.1279 10.3337 35.4402 10.4421C35.6256 10.5058 35.8186 10.5518 36.0141 10.5772C36.2147 10.6039 36.4177 10.6171 36.6209 10.6155C36.8824 10.6143 37.1465 10.5993 37.4105 10.5683C37.6848 10.5356 37.9615 10.4942 38.2357 10.4436C38.5201 10.3918 38.8045 10.3355 39.0863 10.273C39.3732 10.2093 39.6602 10.144 39.9471 10.0773C40.267 10.0046 40.5844 9.93202 40.9043 9.8622C41.1988 9.79923 41.4934 9.74032 41.7904 9.68954ZM22.2675 9.31046C25.1367 8.07825 28.2953 7.39575 31.6113 7.39575C34.6099 7.39575 37.4816 7.95409 40.1248 8.97251C39.9877 9.00323 39.8505 9.03446 39.7134 9.06595C39.4291 9.13273 39.1473 9.19646 38.8629 9.25866C38.5912 9.31808 38.3195 9.37292 38.0479 9.42345C37.7965 9.4694 37.5426 9.508 37.2887 9.53745C37.0652 9.56259 36.8392 9.57757 36.6158 9.57757C36.4584 9.57909 36.306 9.56868 36.1511 9.54786C36.0242 9.53161 35.8998 9.5019 35.7779 9.46026C35.425 9.33737 35.0619 9.23784 34.6912 9.16243C34.2951 9.08067 33.8914 9.01694 33.4851 8.97099C33.0535 8.92198 32.6219 8.88796 32.1877 8.86714C31.7306 8.84657 31.2761 8.83616 30.8191 8.83616C30.23 8.83743 29.641 8.85089 29.0519 8.87755C28.4603 8.90421 27.8713 8.93976 27.2822 8.98444C26.1828 9.06899 25.0859 9.1698 23.9865 9.28685C23.6564 9.32112 23.3238 9.3389 22.9912 9.3389C22.75 9.3389 22.5088 9.32925 22.2675 9.31046Z" fill="white"/>
<path fill-rule="evenodd" clip-rule="evenodd" d="M8.88672 6.48507C8.88672 5.10324 9.43775 3.77604 10.4155 2.7983C11.3932 1.81962 12.7205 1.26953 14.1032 1.26953C15.486 1.26953 16.8132 1.81962 17.7909 2.7983C18.7696 3.77604 19.3187 5.10324 19.3187 6.48507C19.3187 7.86879 18.7696 9.19599 17.7909 10.1737C16.8132 11.1515 15.486 11.7006 14.1032 11.7006C12.7205 11.7006 11.3932 11.1515 10.4155 10.1737C9.43775 9.19599 8.88672 7.86879 8.88672 6.48507ZM10.9015 6.48507C10.9015 5.63638 11.2406 4.82255 11.8397 4.22159C12.4397 3.62252 13.2536 3.28435 14.1032 3.28435C14.9519 3.28435 15.7658 3.62252 16.3658 4.22159C16.9668 4.82255 17.304 5.63638 17.304 6.48507C17.304 7.33377 16.9668 8.14761 16.3658 8.74857C15.7658 9.34859 14.9519 9.68581 14.1032 9.68581C13.2536 9.68581 12.4397 9.34859 11.8397 8.74857C11.2406 8.14761 10.9015 7.33377 10.9015 6.48507Z" fill="white"/>
<path fill-rule="evenodd" clip-rule="evenodd" d="M8.13773 27.7563C6.95706 27.4823 5.86269 26.8821 4.99179 26.0106C3.76797 24.7858 3.07739 23.1227 3.07739 21.3901C3.07739 19.6574 3.76797 17.993 4.99179 16.7679C6.21816 15.5431 7.8813 14.854 9.61294 14.854C10.9485 14.854 12.2459 15.2641 13.3301 16.0138C12.9035 16.5321 12.4947 17.0688 12.1113 17.6223C11.3775 17.1348 10.5092 16.8687 9.61294 16.8687C8.4145 16.8687 7.26428 17.3456 6.41878 18.1931C5.57073 19.0409 5.09339 20.1906 5.09339 21.3901C5.09339 22.5882 5.57073 23.7395 6.41878 24.587C6.99768 25.1677 7.72131 25.5742 8.50588 25.7722C8.35607 26.4237 8.23421 27.0854 8.13773 27.7563Z" fill="white"/>
</svg>
